<?xml version="1.0" encoding="utf-8"?>
<svg version="1.1" xmlns="http://www.w3.org/2000/svg" xmlns:xlink="http://www.w3.org/1999/xlink" height="16" width="16">
  <defs>
    <path id="path-1" opacity="1" fill-rule="evenodd" d="M3.3333333333333335,8.666666666666666 L11.24333333333334,8.666666666666666 L8.821333333333314,11.573333333333341 C8.585333333333324,11.855999999999993 8.623999999999985,12.27666666666664 8.906666666666677,12.51200000000002 C9.190000000000015,12.74799999999997 9.610000000000014,12.709333333333309 9.846000000000004,12.426666666666657 L13.179333333333336,8.426666666666657 C13.205333333333328,8.395333333333307 13.218,8.358666666666673 13.237333333333329,8.323999999999993 C13.25333333333333,8.295999999999973 13.272666666666662,8.27200000000001 13.28466666666668,8.24133333333331 C13.314666666666653,8.164666666666637 13.332666666666682,8.083999999999984 13.333333333333332,8 C13.332666666666682,8.002000000000027 13.332666666666682,7.997999999999971 13.332666666666682,7.997333333333319 C13.332666666666682,7.916000000000015 13.314666666666653,7.835333333333361 13.28466666666668,7.758666666666688 C13.272666666666662,7.727999999999989 13.25333333333333,7.7040000000000255 13.237333333333329,7.6760000000000055 C13.218,7.641333333333327 13.205333333333328,7.6046666666666916 13.179333333333336,7.573333333333341 L9.846000000000004,3.5733333333333426 C9.713333333333328,3.415333333333365 9.524000000000001,3.3333333333333335 9.333333333333332,3.3333333333333335 C9.182666666666666,3.3333333333333335 9.03133333333335,3.3840000000000146 8.906666666666677,3.487999999999981 C8.623999999999985,3.7233333333333576 8.585333333333324,4.1440000000000055 8.821333333333314,4.426666666666658 L11.24333333333334,7.333333333333332 L3.3333333333333335,7.333333333333332 C2.96533333333332,7.333333333333332 2.666666666666667,7.6319999999999855 2.666666666666667,8 "/>
    <mask id="mask-2" maskUnits="userSpaceOnUse" maskContentUnits="userSpaceOnUse">
      <rect opacity="1" x="0" y="0" width="16" height="16" fill="Black"/>
      <use xlink:href="#path-1" fill="White"/>
    </mask>
  </defs>
  <g opacity="1">
    <g opacity="1">
      <use xlink:href="#path-1" fill="rgb(53,52,52)" fill-opacity="1"/>
    </g>
    <g mask="url(#mask-2)"/>
  </g>
</svg>