<?xml version="1.0" encoding="utf-8"?>
<svg version="1.1" xmlns="http://www.w3.org/2000/svg" xmlns:xlink="http://www.w3.org/1999/xlink" height="16" width="16">
  <defs>
    <path id="path-1" opacity="1" fill-rule="evenodd" d="M12.666666666666668,7.333333333333332 L4.756666666666661,7.333333333333332 L7.178666666666686,4.426666666666657 C7.414666666666676,4.1440000000000055 7.3760000000000145,3.7233333333333576 7.093333333333324,3.4879999999999804 C6.809999999999984,3.252000000000028 6.389999999999986,3.29066666666669 6.154666666666648,3.573333333333342 L2.8213333333333144,7.573333333333341 C2.7953333333333226,7.604666666666692 2.7820000000000014,7.641333333333326 2.7626666666666706,7.676000000000006 C2.74666666666667,7.704000000000026 2.727333333333339,7.727999999999989 2.71533333333332,7.758666666666689 C2.685333333333347,7.835333333333361 2.667333333333318,7.9160000000000155 2.667333333333318,7.997333333333319 C2.667333333333318,7.997999999999971 2.666666666666667,7.9993333333333485 2.667333333333318,8.002666666666679 C2.666666666666667,8.00066666666665 2.685333333333347,8.164666666666637 2.71533333333332,8.241333333333309 C2.727333333333339,8.27200000000001 2.74666666666667,8.295999999999973 2.7626666666666706,8.323999999999993 C2.7820000000000014,8.358666666666673 2.7953333333333226,8.395333333333307 2.8213333333333144,8.426666666666655 L6.154666666666648,12.426666666666655 C6.2866666666666715,12.584666666666633 6.475999999999999,12.666666666666664 6.666666666666667,12.666666666666664 C6.817333333333333,12.666666666666664 6.96866666666665,12.615999999999984 7.093333333333324,12.512000000000016 C7.3760000000000145,12.27666666666664 7.414666666666676,11.855999999999991 7.178666666666686,11.57333333333334 L4.756666666666661,8.666666666666664 L12.666666666666668,8.666666666666664 C13.03466666666668,8.666666666666664 13.333333333333332,8.368000000000013 13.333333333333332,7.999999999999999 "/>
    <mask id="mask-2" maskUnits="userSpaceOnUse" maskContentUnits="userSpaceOnUse">
      <rect opacity="1" x="0" y="0" width="16" height="16" fill="Black"/>
      <use xlink:href="#path-1" fill="White"/>
    </mask>
  </defs>
  <g opacity="1">
    <g opacity="1">
      <use xlink:href="#path-1" fill="rgb(53,52,52)" fill-opacity="1"/>
    </g>
    <g mask="url(#mask-2)"/>
  </g>
</svg>