<svg xmlns="http://www.w3.org/2000/svg" xmlns:xlink="http://www.w3.org/1999/xlink" height="16" width="16"><defs><path id="a" fill-rule="evenodd" d="M3.333 8.667h7.91l-2.422 2.906a.666.666 0 1 0 1.025.854l3.333-4c.026-.032.039-.068.058-.103.016-.028.036-.052.048-.083A.675.675 0 0 0 13.333 8v-.003a.657.657 0 0 0-.048-.238c-.012-.031-.032-.055-.048-.083-.019-.035-.032-.071-.058-.103l-3.333-4a.668.668 0 0 0-.94-.085.666.666 0 0 0-.085.939l2.422 2.906h-7.91A.667.667 0 0 0 2.667 8"/></defs><use xlink:href="#a" fill="#353434"/></svg>