<svg xmlns="http://www.w3.org/2000/svg" width="15" height="15" viewBox="0 0 15 15">
    <g fill="#202637" fill-opacity=".535" fill-rule="nonzero">
        <path d="M13.242 1.172h-.703V0h-1.172v1.172H3.633V0H2.46v1.172h-.703A1.76 1.76 0 0 0 0 2.93v10.312C0 14.212.789 15 1.758 15h11.484A1.76 1.76 0 0 0 15 13.242V2.93a1.76 1.76 0 0 0-1.758-1.758zm.586 12.07a.587.587 0 0 1-.586.586H1.758a.587.587 0 0 1-.586-.586V5.508h12.656v7.734zm0-8.906H1.172V2.93c0-.323.263-.586.586-.586h.703v1.172h1.172V2.344h7.734v1.172h1.172V2.344h.703c.323 0 .586.263.586.586v1.406z"/>
        <path d="M2.227 6.738h1.172V7.91H2.227zM4.57 6.738h1.172V7.91H4.57zM6.914 6.738h1.172V7.91H6.914zM9.258 6.738h1.172V7.91H9.258zM11.602 6.738h1.172V7.91h-1.172zM2.227 9.082h1.172v1.172H2.227zM4.57 9.082h1.172v1.172H4.57zM6.914 9.082h1.172v1.172H6.914zM9.258 9.082h1.172v1.172H9.258zM2.227 11.426h1.172v1.172H2.227zM4.57 11.426h1.172v1.172H4.57zM6.914 11.426h1.172v1.172H6.914zM9.258 11.426h1.172v1.172H9.258zM11.602 9.082h1.172v1.172h-1.172z"/>
    </g>
</svg>
