<?xml version="1.0" encoding="UTF-8"?>
<svg width="481px" height="180px" viewBox="0 0 481 180" version="1.1" xmlns="http://www.w3.org/2000/svg" xmlns:xlink="http://www.w3.org/1999/xlink">
    <!-- Generator: Sketch 57 (83077) - https://sketch.com -->
    <title>green guys</title>
    <desc>Created with Sketch.</desc>
    <g id="Page-1" stroke="none" stroke-width="1" fill="none" fill-rule="evenodd">
        <g id="job-page" transform="translate(-7708.000000, -1153.000000)" fill-rule="nonzero">
            <g id="job-folder-copy-4" transform="translate(5515.000000, 941.000000)">
                <g id="job-folder">
                    <g id="green-guys" transform="translate(2193.000000, 212.000000)">
                        <g id="choose">
                            <g>
                                <path d="M168.09375,128.183594 C168.09375,101.675781 146.601562,80.183594 120.09375,80.183594 L56.09375,80.183594 C29.582031,80.183594 8.09375,101.675781 8.09375,128.183594 L8.09375,160.183594 L30.757812,168.984375 C69.082031,183.878906 111.675781,183.449219 149.691406,167.777344 L168.09375,160.183594 L168.09375,128.183594 Z" id="Path" fill-opacity="0.47189139" fill="#F2364C"></path>
                                <path d="M120.09375,40.183594 C120.09375,57.859375 105.765625,72.183594 88.09375,72.183594 C70.417969,72.183594 56.09375,57.859375 56.09375,40.183594 C56.09375,22.511719 70.417969,8.183594 88.09375,8.183594 C105.765625,8.183594 120.09375,22.511719 120.09375,40.183594 Z" id="Path" fill-opacity="0.47189139" fill="#F2364C"></path>
                                <path d="M472.09375,128.183594 C472.09375,101.675781 450.601562,80.183594 424.09375,80.183594 L360.09375,80.183594 C333.582031,80.183594 312.09375,101.675781 312.09375,128.183594 L312.09375,160.183594 L334.757812,168.984375 C373.082031,183.878906 415.675781,183.449219 453.691406,167.777344 L472.09375,160.183594 L472.09375,128.183594 Z" id="Path" fill-opacity="0.47189139" fill="#F2364C"></path>
                                <path d="M424.09375,40.183594 C424.09375,57.859375 409.765625,72.183594 392.09375,72.183594 C374.417969,72.183594 360.09375,57.859375 360.09375,40.183594 C360.09375,22.511719 374.417969,8.183594 392.09375,8.183594 C409.765625,8.183594 424.09375,22.511719 424.09375,40.183594 Z" id="Path" fill-opacity="0.47189139" fill="#F2364C"></path>
                                <path d="M320.09375,128.183594 C320.09375,101.675781 298.601562,80.183594 272.09375,80.183594 L208.09375,80.183594 C181.582031,80.183594 160.09375,101.675781 160.09375,128.183594 L160.09375,160.183594 L182.757812,168.984375 C221.082031,183.878906 263.675781,183.449219 301.691406,167.777344 L320.09375,160.183594 L320.09375,128.183594 Z" id="Path" fill-opacity="0.47189139" fill="#F2364C"></path>
                                <path d="M272.09375,40.183594 C272.09375,57.859375 257.765625,72.183594 240.09375,72.183594 C222.417969,72.183594 208.09375,57.859375 208.09375,40.183594 C208.09375,22.511719 222.417969,8.183594 240.09375,8.183594 C257.765625,8.183594 272.09375,22.511719 272.09375,40.183594 Z" id="Path" fill-opacity="0.47189139" fill="#F2364C"></path>
                                <path d="M424.09375,72.183594 L415.84375,72.183594 C429.742188,61.925781 435.488281,43.90625 430.089844,27.496094 C424.6875,11.089844 409.367188,0 392.09375,0 C374.816406,0 359.496094,11.089844 354.097656,27.496094 C348.695312,43.90625 354.441406,61.925781 368.339844,72.183594 L360.09375,72.183594 C342.902344,72.203125 326.675781,80.125 316.09375,93.671875 C305.511719,80.121094 289.285156,72.195312 272.09375,72.183594 L263.84375,72.183594 C277.742188,61.925781 283.488281,43.90625 278.089844,27.496094 C272.6875,11.089844 257.367188,0 240.09375,0 C222.816406,0 207.496094,11.089844 202.097656,27.496094 C196.695312,43.90625 202.441406,61.925781 216.339844,72.183594 L208.09375,72.183594 C190.902344,72.195312 174.671875,80.121094 164.09375,93.671875 C153.507812,80.125 137.28125,72.203125 120.09375,72.183594 L111.84375,72.183594 C125.742188,61.925781 131.488281,43.90625 126.089844,27.496094 C120.6875,11.089844 105.367188,0 88.09375,0 C70.816406,0 55.496094,11.089844 50.097656,27.496094 C44.695312,43.90625 50.441406,61.925781 64.339844,72.183594 L56.09375,72.183594 C25.179688,72.222656 0.132812,97.273438 0.09375,128.183594 L0.09375,144.183594 L16.09375,144.183594 L16.09375,128.183594 C16.117188,106.105469 34.011719,88.210938 56.09375,88.183594 L120.09375,88.183594 C134.898438,88.195312 148.480469,96.40625 155.363281,109.511719 C153.210938,115.503906 152.105469,121.820312 152.09375,128.183594 L152.09375,144.183594 L168.09375,144.183594 L168.09375,128.183594 C168.117188,106.105469 186.011719,88.210938 208.09375,88.183594 L272.09375,88.183594 C294.171875,88.210938 312.066406,106.105469 312.09375,128.183594 L312.09375,144.183594 L328.09375,144.183594 L328.09375,128.183594 C328.078125,121.820312 326.972656,115.503906 324.820312,109.511719 C331.707031,96.40625 345.285156,88.195312 360.09375,88.183594 L424.09375,88.183594 C446.171875,88.210938 464.066406,106.105469 464.09375,128.183594 L464.09375,144.183594 L480.09375,144.183594 L480.09375,128.183594 C480.050781,97.273438 455.003906,72.222656 424.09375,72.183594 Z M392.09375,16.183594 C405.347656,16.183594 416.09375,26.929688 416.09375,40.183594 C416.09375,53.4375 405.347656,64.183594 392.09375,64.183594 C378.835938,64.183594 368.09375,53.4375 368.09375,40.183594 C368.09375,26.929688 378.835938,16.183594 392.09375,16.183594 Z M240.09375,16.183594 C253.347656,16.183594 264.09375,26.929688 264.09375,40.183594 C264.09375,53.4375 253.347656,64.183594 240.09375,64.183594 C226.835938,64.183594 216.09375,53.4375 216.09375,40.183594 C216.09375,26.929688 226.835938,16.183594 240.09375,16.183594 Z M88.09375,16.183594 C101.347656,16.183594 112.09375,26.929688 112.09375,40.183594 C112.09375,53.4375 101.347656,64.183594 88.09375,64.183594 C74.835938,64.183594 64.09375,53.4375 64.09375,40.183594 C64.09375,26.929688 74.835938,16.183594 88.09375,16.183594 Z" id="Shape" fill="#000000"></path>
                            </g>
                        </g>
                    </g>
                </g>
            </g>
        </g>
    </g>
</svg>