<?xml version="1.0" encoding="UTF-8"?>
<svg width="68px" height="68px" viewBox="0 0 68 68" version="1.1" xmlns="http://www.w3.org/2000/svg" xmlns:xlink="http://www.w3.org/1999/xlink">
    <!-- Generator: Sketch 55 (78076) - https://sketchapp.com -->
    <title>application review</title>
    <desc>Created with Sketch.</desc>
    <g id="Page-1" stroke="none" stroke-width="1" fill="none" fill-rule="evenodd">
        <g id="Desktop-HD" transform="translate(-686.000000, -436.000000)" fill-rule="nonzero">
            <g id="application-review" transform="translate(686.000000, 436.000000)">
                <circle id="Oval" fill="#50E3C2" cx="35.5" cy="35.5" r="32.5"></circle>
                <path d="M32.5729883,33.2891989 C35.1245451,30.7416108 38.5166464,29.338607 42.1245451,29.338607 C44.5825583,29.338607 46.9398841,29.9903093 49,31.2109388 L49,8 L0,8 L0,50.6540638 C0,51.3943287 0.606550748,52 1.34789055,52 L32.2233455,52 C27.3101496,46.7176042 27.426203,38.4287908 32.5729883,33.2891989 Z" id="Path" fill="#EEF6FF"></path>
                <path d="M2.77600979,50.6540638 L2.77600979,8 L0,8 L0,50.6540638 C0,51.3943287 0.550795594,52 1.22399021,52 L4,52 C3.32680539,52 2.77600979,51.3943287 2.77600979,50.6540638 Z" id="Path" fill="#C3DDF4"></path>
                <path d="M48.2295458,0 L0.770454239,0 C0.34667745,0 0,0.363546415 0,0.807943744 L0,8 L49,8 L49,0.807943744 C49,0.363546415 48.6533226,0 48.2295458,0 Z" id="Path" fill="#293D7C"></path>
                <path d="M4,0 L0.805183829,0 C0.36230455,0 0,0.363546415 0,0.807943744 L0,8 L3.19481617,8 L3.19481617,0.807943744 C3.19481617,0.363546415 3.55712072,0 4,0 Z" id="Path" fill="#1A2B63"></path>
                <path d="M22,22.3327328 C22,22.6997298 21.6850374,23 21.3000832,23 L5.69991683,23 C5.31496258,23 5,22.6997298 5,22.3327328 L5,11.6672672 C5,11.3002702 5.31496258,11 5.69991683,11 L21.2999432,11 C21.6848974,11 21.99986,11.3002702 21.99986,11.6672672 L21.99986,22.3327328 L22,22.3327328 Z" id="Path" fill="#69CDFF"></path>
                <path d="M8.27745665,22.3327328 L8.27745665,11.6672672 C8.27745665,11.3002702 8.60260116,11 9,11 L5.72254335,11 C5.32514451,11 5,11.3002702 5,11.6672672 L5,22.3327328 C5,22.6997298 5.32514451,23 5.72254335,23 L9,23 C8.60260116,23 8.27745665,22.6997298 8.27745665,22.3327328 Z" id="Path" fill="#52BBEF"></path>
                <path d="M29,37 L5.66543561,37 C5.29944602,37 5,37.3113702 5,37.6919338 L5,44.3080662 C5,44.6886298 5.29944602,45 5.66543561,45 L28.8553343,45 C28.1532997,42.3832448 28.201078,39.5928143 29,37 Z" id="Path" fill="#FF9518"></path>
                <path d="M8.27745665,44.3080662 L8.27745665,37.6919338 C8.27745665,37.3113702 8.60260116,37 9,37 L5.72254335,37 C5.32514451,37 5,37.3113702 5,37.6919338 L5,44.3080662 C5,44.6886298 5.32514451,45 5.72254335,45 L9,45 C8.60260116,45 8.27745665,44.6886298 8.27745665,44.3080662 Z" id="Path" fill="#EF8318"></path>
                <path d="M29,37 L24,37 L24,45 L28.8502714,45 C28.1236673,42.3832448 28.1731177,39.5928143 29,37 Z" id="Path" fill="#FFD00D"></path>
                <g id="Group" transform="translate(4.000000, 12.000000)" fill="#91E0E8">
                    <path d="M38.9005333,2.02027746 L22.5553333,2.02027746 C22.0030667,2.02027746 21.5553333,1.57383815 21.5553333,1.02316763 C21.5553333,0.47249711 22.0030667,0.0260578035 22.5553333,0.0260578035 L38.9005333,0.0260578035 C39.4529333,0.0260578035 39.9005333,0.47249711 39.9005333,1.02316763 C39.9005333,1.57383815 39.4529333,2.02027746 38.9005333,2.02027746 Z" id="Path"></path>
                    <path d="M38.9005333,6.00512717 L22.5553333,6.00512717 C22.0030667,6.00512717 21.5553333,5.55868786 21.5553333,5.00801734 C21.5553333,4.45734682 22.0030667,4.01090751 22.5553333,4.01090751 L38.9005333,4.01090751 C39.4529333,4.01090751 39.9005333,4.45734682 39.9005333,5.00801734 C39.9005333,5.55868786 39.4529333,6.00512717 38.9005333,6.00512717 Z" id="Path"></path>
                    <path d="M38.9005333,9.98997688 L22.5553333,9.98997688 C22.0030667,9.98997688 21.5553333,9.54353757 21.5553333,8.99286705 C21.5553333,8.44219653 22.0030667,7.99575723 22.5553333,7.99575723 L38.9005333,7.99575723 C39.4529333,7.99575723 39.9005333,8.44219653 39.9005333,8.99286705 C39.9005333,9.54353757 39.4529333,9.98997688 38.9005333,9.98997688 Z" id="Path"></path>
                    <path d="M38.9005333,13.9748266 L22.5553333,13.9748266 C22.0030667,13.9748266 21.5553333,13.5283873 21.5553333,12.9777168 C21.5553333,12.4270462 22.0030667,11.9806069 22.5553333,11.9806069 L38.9005333,11.9806069 C39.4529333,11.9806069 39.9005333,12.4270462 39.9005333,12.9777168 C39.9005333,13.5283873 39.4529333,13.9748266 38.9005333,13.9748266 Z" id="Path"></path>
                    <path d="M36.0612,16.9040694 L1.04213333,16.9040694 C0.489733333,16.9040694 0.0421333333,17.3505087 0.0421333333,17.9011792 C0.0421333333,18.4518497 0.489733333,18.898289 1.04213333,18.898289 L30.5853333,18.898289 C32.2369333,17.8372312 34.0989333,17.1572023 36.0612,16.9040694 Z" id="Path"></path>
                    <path d="M28.0948,20.9608439 L1.04213333,20.9608439 C0.489733333,20.9608439 0.0421333333,21.4072832 0.0421333333,21.9579538 C0.0421333333,22.5086243 0.489733333,22.9550636 1.04213333,22.9550636 L26.5338667,22.9550636 C26.9821333,22.253763 27.5021333,21.5853006 28.0948,20.9608439 Z" id="Path"></path>
                </g>
                <path d="M4,5 C3.73613333,5 3.47866667,4.89333333 3.292,4.70786667 C3.10653333,4.5212 3,4.26386667 3,4 C3,3.7372 3.10666667,3.48 3.292,3.29333333 C3.47853333,3.10666667 3.736,3 4,3 C4.2628,3 4.52133333,3.10653333 4.70666667,3.29333333 C4.89333333,3.48 5,3.73733333 5,4 C5,4.26386667 4.89333333,4.52133333 4.70666667,4.70786667 C4.52133333,4.89333333 4.26266667,5 4,5 Z" id="Path" fill="#E26693"></path>
                <path d="M8,5 C7.7372,5 7.47866667,4.89333333 7.2932,4.70653333 C7.10666667,4.5212 7,4.26386667 7,4 C7,3.7372 7.10666667,3.48 7.2932,3.29333333 C7.47986667,3.10666667 7.7372,3 8,3 C8.26386667,3 8.5212,3.10653333 8.708,3.29333333 C8.89333333,3.48 9,3.73733333 9,4 C9,4.26266667 8.8932,4.52133333 8.708,4.70653333 C8.5212,4.89333333 8.264,5 8,5 Z" id="Path" fill="#FFAF10"></path>
                <path d="M11,5 C10.736,5 10.4786667,4.89333333 10.2933333,4.70786667 C10.1066667,4.5212 10,4.26386667 10,4 C10,3.7372 10.1066667,3.48 10.2933333,3.29333333 C10.4786667,3.10666667 10.736,3 11,3 C11.2626667,3 11.5213333,3.10653333 11.7066667,3.29333333 C11.8933333,3.48 12,3.73733333 12,4 C12,4.26386667 11.8933333,4.52133333 11.7066667,4.70786667 C11.52,4.89333333 11.2625333,5 11,5 Z" id="Path" fill="#37C47A"></path>
                <g id="Group-2" transform="translate(28.000000, 28.000000)">
                    <path d="M26.5945667,23.8537667 L23.8539,26.5945667 L29.2455,31.9861667 C30.2121667,31.1273667 31.1273667,30.2120333 31.9863,29.2453667 L26.5945667,23.8537667 Z" id="Path" fill="#445EA0"></path>
                    <path d="M27.6825667,22.2009667 L25.4112333,19.9297667 C24.8071,21.0612333 24.0292333,22.1237667 23.0763,23.0765667 C22.1341667,24.0187 21.0760333,24.8025667 19.9341667,25.4153667 L22.2012333,27.6823 C22.4604333,27.9416333 22.8847,27.9416333 23.1440333,27.6823 L27.6825667,23.1437667 C27.9417667,22.8845667 27.9417667,22.4603 27.6825667,22.2009667 Z" id="Path" fill="#293D7C"></path>
                    <path d="M23.7567,26.1267 L21.8180333,24.1880333 C21.2219,24.6521667 20.5919,25.0621667 19.9340333,25.4152333 L22.2011,27.6821667 C22.4603,27.9415 22.8845667,27.9415 23.1439,27.6821667 L24.6995,26.1265667 C24.4401667,26.3860333 24.0160333,26.3860333 23.7567,26.1267 Z" id="Path" fill="#1A2B63"></path>
                    <path d="M23.2649667,3.99163333 C28.5871,9.31376667 28.5871,17.9428333 23.2648333,23.2651 C17.9429667,28.5868333 9.31403333,28.5869667 3.9915,23.2649667 C-1.33063333,17.9428333 -1.33036667,9.31376667 3.9915,3.99176667 C9.31403333,-1.3305 17.9429667,-1.33063333 23.2649667,3.99163333 Z" id="Path" fill="#445EA0"></path>
                    <path d="M20.3851,20.3849667 C16.6536333,24.1165667 10.6033667,24.1165667 6.8715,20.3847 C3.14003333,16.6535 3.1399,10.6031 6.8715,6.8715 C10.6029667,3.14003333 16.6535,3.14016667 20.3849667,6.8715 C24.1167,10.6032333 24.1167,16.6533667 20.3851,20.3849667 Z" id="Path" fill="#69CDFF"></path>
                    <path d="M20.3851,20.3849667 C20.7249667,20.0451 21.0329667,19.6856333 21.3108333,19.3108333 C17.5701667,22.0848333 12.2635,21.7767 8.8715,18.3847 C5.47976667,14.9932333 5.17176667,9.68643333 7.94563333,5.94576667 C7.5707,6.22376667 7.21136667,6.53176667 6.8715,6.8715 C3.1399,10.6031 3.14003333,16.6533667 6.8715,20.3847 C10.6033667,24.1165667 16.6536333,24.1165667 20.3851,20.3849667 Z" id="Path" fill="#52BBEF"></path>
                </g>
                <path d="M48.2382329,0 L16,0 L16,8 L49,8 L49,0.807943744 C49,0.363546415 48.6572315,0 48.2382329,0 Z" id="Path" fill="#445EA0"></path>
                <g id="Group" transform="translate(42.000000, 33.000000)" fill="#D9EAFC">
                    <ellipse id="Oval" cx="1.63787234" cy="1.47411765" rx="1.53191489" ry="1.41176471"></ellipse>
                    <ellipse id="Oval" cx="4.85617021" cy="2.94117647" rx="1.08510638" ry="1"></ellipse>
                </g>
            </g>
        </g>
    </g>
</svg>