<?xml version="1.0" encoding="UTF-8"?>
<svg width="120px" height="120px" viewBox="0 0 120 120" version="1.1" xmlns="http://www.w3.org/2000/svg" xmlns:xlink="http://www.w3.org/1999/xlink">
    <!-- Generator: Sketch 53.2 (72643) - https://sketchapp.com -->
    <title>Illustration</title>
    <desc>Created with Sketch.</desc>
    <defs>
        <linearGradient x1="50%" y1="0%" x2="50%" y2="100%" id="linearGradient-1">
            <stop stop-color="#0086E9" offset="0%"></stop>
            <stop stop-color="#004ECF" offset="100%"></stop>
        </linearGradient>
        <circle id="path-2" cx="60" cy="60" r="60"></circle>
    </defs>
    <g id="Returning-User" stroke="none" stroke-width="1" fill="none" fill-rule="evenodd">
        <g id="0.-New-User---Home" transform="translate(-775.000000, -279.000000)">
            <g id="Illustration" transform="translate(775.000000, 279.000000)">
                <mask id="mask-3" fill="white">
                    <use xlink:href="#path-2"></use>
                </mask>
                <use id="Circle" fill-opacity="0.2" fill="url(#linearGradient-1)" xlink:href="#path-2"></use>
                <g id="check-mark" mask="url(#mask-3)">
                    <g transform="translate(16.800000, 34.800000)">
                        <path d="M78.7661719,120 L8.42132813,120 C3.85078125,120 0.145546875,116.294766 0.145546875,111.724219 L0.145546875,16.5517969 C0.145546875,11.98125 3.85078125,8.27601563 8.42132813,8.27601563 L78.7661719,8.27601563 C83.3367188,8.27601563 87.0419531,11.98125 87.0419531,16.5517969 L87.0419531,111.724219 C87.0419531,116.294766 83.3367188,120 78.7661719,120 Z" id="Path" fill="#E1C3A0" fill-rule="evenodd"></path>
                        <path d="M78.7661719,113.793047 L8.42132812,113.793047 C7.27875,113.793047 6.35226562,112.866563 6.35226562,111.723984 L6.35226562,16.5517969 C6.35226562,15.4092188 7.27875,14.4827344 8.42132812,14.4827344 L78.7661719,14.4827344 C79.90875,14.4827344 80.8352344,15.4092188 80.8352344,16.5517969 L80.8352344,111.724219 C80.8352344,112.866797 79.90875,113.793047 78.7661719,113.793047 Z" id="Path" fill="#EFF2FA" fill-rule="evenodd"></path>
                        <path d="M56.0076563,8.27578125 L49.8007031,8.27578125 L49.8007031,6.20671875 C49.8007031,2.77898437 47.0217188,0 43.59375,0 C40.1657813,0 37.3867969,2.77898437 37.3867969,6.20695312 L37.3867969,8.27601562 L31.1798438,8.27601562 C28.8946875,8.27601562 27.0419531,10.1285156 27.0419531,12.4139062 L27.0419531,16.5517969 L60.1453125,16.5517969 L60.1453125,12.4139062 C60.1455469,10.1282812 58.2928125,8.27578125 56.0076563,8.27578125 Z M43.59375,8.27578125 C42.4511719,8.27578125 41.5246875,7.34929688 41.5246875,6.20671875 C41.5246875,5.06414063 42.4511719,4.13765625 43.59375,4.13765625 C44.7363281,4.13765625 45.6628125,5.06414063 45.6628125,6.20671875 C45.6628125,7.34929688 44.7363281,8.27578125 43.59375,8.27578125 Z" id="Shape" fill="#C7CFE2" fill-rule="nonzero"></path>
                        <path d="M60.1455469,18.620625 L27.0419531,18.620625 C25.899375,18.620625 24.9728906,17.6941406 24.9728906,16.5515625 L24.9728906,16.5515625 C24.9728906,15.4089844 25.899375,14.4825 27.0419531,14.4825 L60.1453125,14.4825 C61.2878906,14.4825 62.214375,15.4089844 62.214375,16.5515625 L62.214375,16.5515625 C62.214375,17.694375 61.288125,18.620625 60.1455469,18.620625 Z" id="Path" fill="#AFB9D2" fill-rule="evenodd"></path>
                        <path d="M22.9040625,47.5860938 C22.3746094,47.5860938 21.8451563,47.3840625 21.4413281,46.98 L15.234375,40.7730469 C14.42625,39.9649219 14.42625,38.6554688 15.234375,37.8473438 C16.0425,37.0392188 17.3519531,37.0392188 18.1600781,37.8473438 L22.9040625,42.5915625 L31.7861719,33.7094531 C32.5942969,32.9013281 33.90375,32.9013281 34.711875,33.7094531 C35.52,34.5175781 35.52,35.8270312 34.711875,36.6351563 L24.3670312,46.98 C23.9629688,47.3842969 23.4335156,47.5860938 22.9040625,47.5860938 Z" id="Path" fill="#82889D" fill-rule="evenodd"></path>
                        <g id="Group" opacity="0.97" stroke-width="1" fill="none" fill-rule="evenodd" transform="translate(39.375000, 35.156250)">
                            <path d="M18.7014844,4.1540625 L2.1496875,4.1540625 C1.00710938,4.1540625 0.080625,3.22757812 0.080625,2.085 L0.080625,2.085 C0.080625,0.942421875 1.00710938,0.0159375 2.1496875,0.0159375 L18.7014844,0.0159375 C19.8440625,0.0159375 20.7705469,0.942421875 20.7705469,2.085 L20.7705469,2.085 C20.7705469,3.2278125 19.8440625,4.1540625 18.7014844,4.1540625 Z" id="Path" fill="#AFB9D2"></path>
                        </g>
                        <g id="Group" opacity="0.97" stroke-width="1" fill="none" fill-rule="evenodd" transform="translate(39.375000, 43.359375)">
                            <path d="M29.0463281,4.22671875 L2.1496875,4.22671875 C1.00710937,4.22671875 0.080625,3.30023437 0.080625,2.15765625 L0.080625,2.15765625 C0.080625,1.01507812 1.00710937,0.08859375 2.1496875,0.08859375 L29.0463281,0.08859375 C30.1889062,0.08859375 31.1153906,1.01507812 31.1153906,2.15765625 L31.1153906,2.15765625 C31.1153906,3.30046875 30.1889062,4.22671875 29.0463281,4.22671875 Z" id="Path" fill="#C7CFE2"></path>
                        </g>
                        <path d="M22.9040625,97.2414844 C22.3746094,97.2414844 21.8451563,97.0394531 21.4413281,96.6353906 L15.234375,90.4282031 C14.42625,89.6200781 14.42625,88.310625 15.234375,87.5025 C16.0425,86.694375 17.3519531,86.694375 18.1600781,87.5025 L22.9040625,92.2467188 L31.7861719,83.3646094 C32.5942969,82.5564844 33.90375,82.5564844 34.711875,83.3646094 C35.52,84.1727344 35.52,85.4821875 34.711875,86.2903125 L24.3670312,96.6351563 C23.9629688,97.0394531 23.4335156,97.2414844 22.9040625,97.2414844 Z" id="Path" fill="#82889D" fill-rule="evenodd"></path>
                        <g id="Group" opacity="0.97" stroke-width="1" fill="none" fill-rule="evenodd" transform="translate(39.375000, 84.609375)">
                            <path d="M18.7014844,4.35609375 L2.1496875,4.35609375 C1.00710938,4.35609375 0.080625,3.42960938 0.080625,2.28703125 L0.080625,2.28703125 C0.080625,1.14445313 1.00710938,0.21796875 2.1496875,0.21796875 L18.7014844,0.21796875 C19.8440625,0.21796875 20.7705469,1.14445313 20.7705469,2.28703125 L20.7705469,2.28703125 C20.7705469,3.42984375 19.8440625,4.35609375 18.7014844,4.35609375 Z" id="Path" fill="#AFB9D2"></path>
                        </g>
                        <path d="M22.9040625,72.4139062 C22.3746094,72.4139062 21.8451563,72.211875 21.4413281,71.8078125 L15.234375,65.600625 C14.42625,64.7925 14.42625,63.4830469 15.234375,62.6749219 C16.0425,61.8667969 17.3519531,61.8667969 18.1600781,62.6749219 L22.9040625,67.4191406 L31.7861719,58.5370313 C32.5942969,57.7289063 33.90375,57.7289063 34.711875,58.5370313 C35.52,59.3451563 35.52,60.6546094 34.711875,61.4627344 L24.3670312,71.8075781 C23.9629688,72.211875 23.4335156,72.4139062 22.9040625,72.4139062 Z" id="Path" fill="#82889D" fill-rule="evenodd"></path>
                        <g id="Group" opacity="0.97" stroke-width="1" fill="none" fill-rule="evenodd" transform="translate(39.375000, 59.765625)">
                            <path d="M18.7014844,4.37226562 L2.1496875,4.37226562 C1.00710938,4.37226562 0.080625,3.44578125 0.080625,2.30320312 L0.080625,2.30320312 C0.080625,1.160625 1.00710938,0.234140625 2.1496875,0.234140625 L18.7014844,0.234140625 C19.8440625,0.234140625 20.7705469,1.160625 20.7705469,2.30320312 L20.7705469,2.30320312 C20.7705469,3.44601562 19.8440625,4.37226562 18.7014844,4.37226562 Z" id="Path" fill="#AFB9D2"></path>
                        </g>
                        <g id="Group" opacity="0.97" stroke-width="1" fill="none" fill-rule="evenodd" transform="translate(39.375000, 68.203125)">
                            <path d="M29.0463281,4.21078125 L2.1496875,4.21078125 C1.00710937,4.21078125 0.080625,3.28429688 0.080625,2.14171875 L0.080625,2.14171875 C0.080625,0.999140625 1.00710937,0.07265625 2.1496875,0.07265625 L29.0463281,0.07265625 C30.1889062,0.07265625 31.1153906,0.999140625 31.1153906,2.14171875 L31.1153906,2.14171875 C31.1153906,3.28429687 30.1889062,4.21078125 29.0463281,4.21078125 Z" id="Path" fill="#C7CFE2"></path>
                        </g>
                    </g>
                </g>
            </g>
        </g>
    </g>
</svg>