<?xml version="1.0" encoding="UTF-8"?>
<svg width="177px" height="200px" viewBox="0 0 177 200" version="1.1" xmlns="http://www.w3.org/2000/svg" xmlns:xlink="http://www.w3.org/1999/xlink">
    <!-- Generator: Sketch 57 (83077) - https://sketch.com -->
    <title>growth (1)</title>
    <desc>Created with Sketch.</desc>
    <g id="Page-1" stroke="none" stroke-width="1" fill="none" fill-rule="evenodd">
        <g id="job-page" transform="translate(-12126.000000, -2038.000000)" fill-rule="nonzero">
            <g id="growth-(1)" transform="translate(12130.000000, 2038.000000)">
                <path d="M39.0259397,129.185761 L5.7421875,129.185761 C2.57052622,129.185761 0,131.756287 0,134.927948 L0,190.257812 C0,193.429474 2.57052622,196 5.7421875,196 L39.0274354,196 C42.1976014,196 44.7696229,193.429474 44.7696229,190.257812 L44.7696229,134.927948 C44.7681272,131.756287 42.1976014,129.185761 39.0259397,129.185761 L39.0259397,129.185761 Z" id="Path" stroke-opacity="0.736341783" stroke="#282828" stroke-width="8"></path>
                <path d="M100.793335,98.2586974 L67.5080871,98.2586974 C64.3364258,98.2586974 61.7658996,100.829224 61.7658996,104.000885 L61.7658996,190.257812 C61.7658996,193.429474 64.3364258,196 67.5080871,196 L100.793335,196 C103.963501,196 106.535522,193.429474 106.535522,190.257812 L106.535522,104.000885 C106.535522,100.829224 103.963501,98.2586974 100.793335,98.2586974 L100.793335,98.2586974 Z" id="Path" stroke-opacity="0.736341783" stroke="#282828" stroke-width="8"></path>
                <path d="M162.557739,51.549591 L129.273987,51.549591 C126.102325,51.549591 123.531799,54.1201172 123.531799,57.2917785 L123.531799,190.257812 C123.531799,193.429474 126.102325,196 129.273987,196 L162.557739,196 C165.729401,196 168.299927,193.429474 168.299927,190.257812 L168.299927,57.2917785 C168.299927,54.1201172 165.729401,51.549591 162.557739,51.549591 Z" id="Path" stroke-opacity="0.736341783" stroke="#282828" stroke-width="8"></path>
                <path d="M6.12200947,72.1930544 C7.0222168,72.1930544 7.93588266,71.9807129 8.78973408,71.5321045 L68.7626953,39.9949339 L92.6346436,52.3705446 C94.3468322,53.2587891 96.3909912,53.2273866 98.0747679,52.2868044 L151.257294,22.6098633 L149.211639,28.0081175 C148.087128,30.9734191 149.579498,34.2886351 152.5448,35.4131468 C153.214722,35.6658631 153.902588,35.7869873 154.578491,35.7869873 C156.896301,35.7869873 159.079529,34.3738709 159.949829,32.0784912 L167.552246,12.0212098 C167.737671,11.5352171 167.843842,11.0312804 167.891693,10.5228576 C167.926086,10.1983643 167.932068,9.86639423 167.906647,9.54190054 C167.849823,8.72244253 167.624023,7.90298452 167.197846,7.13885517 C166.218384,5.38330078 164.455353,4.34551983 162.589142,4.21243277 L142.015961,0.112152195 C138.907104,-0.508422852 135.881988,1.51031475 135.262909,4.62066631 C134.642334,7.73101787 136.661072,10.7546387 139.771424,11.3752137 L145.705017,12.556549 L95.1767578,40.7530822 L71.3870545,28.4193419 C69.7197266,27.5550233 67.7338867,27.5610047 66.0725402,28.435791 L3.44381723,61.3666384 C0.637023734,62.844055 -0.441131687,66.3147889 1.03479004,69.121582 C2.06210337,71.0760194 4.05691519,72.1930544 6.12200947,72.1930544 Z" id="Path" fill-opacity="0.736341783" fill="#282828"></path>
            </g>
        </g>
    </g>
</svg>