<?xml version="1.0" encoding="UTF-8"?>
<svg width="216px" height="168px" viewBox="0 0 216 168" version="1.1" xmlns="http://www.w3.org/2000/svg" xmlns:xlink="http://www.w3.org/1999/xlink">
    <!-- Generator: Sketch 57 (83077) - https://sketch.com -->
    <title>mail</title>
    <desc>Created with Sketch.</desc>
    <g id="Page-1" stroke="none" stroke-width="1" fill="none" fill-rule="evenodd" fill-opacity="0.736341783" stroke-opacity="0.736341783">
        <g id="job-page-copy" transform="translate(-9572.000000, -3381.000000)" fill="#282828" fill-rule="nonzero" stroke="#282828" stroke-width="6">
            <g id="Group" transform="translate(2140.000000, -376.000000)">
                <g id="send-login" transform="translate(7435.000000, 3755.000000)">
                    <g id="mail" transform="translate(0.000000, 5.000000)">
                        <path d="M199.5,0 L10.5,0 C4.70121094,0 0,4.73000232 0,10.5652264 L0,151.434774 C0,157.269585 4.70080078,162 10.5,162 L199.5,162 C205.298789,162 210,157.269998 210,151.434774 L210,10.5652264 C210,4.73041502 205.299199,0 199.5,0 Z M202.999863,151.435186 C202.999863,153.380261 201.433066,154.956791 199.5,154.956791 L10.5,154.956791 C8.56693359,154.956791 7.00013672,153.380261 7.00013672,151.435186 L7.00013672,10.5652264 C7.00013672,8.62015168 8.56693359,7.04362181 10.5,7.04362181 L199.5,7.04362181 C201.433066,7.04362181 202.999863,8.62015168 202.999863,10.5652264 L202.999863,151.435186 Z" id="Shape"></path>
                        <path d="M192.804317,14.0134611 C191.879417,13.9329677 190.960259,14.2218451 190.24946,14.8167609 L109.504267,82.3883281 C106.900192,84.5690051 103.099284,84.5690051 100.495209,82.3883281 L19.7508354,14.8163523 C18.7931231,14.0155041 17.478986,13.7842388 16.3038915,14.2099958 C15.128797,14.6357529 14.2707524,15.6539742 14.0533702,16.880988 C13.835988,18.1080019 14.2920805,19.3570799 15.2497928,20.1579281 L95.9945763,87.7262265 C101.198625,92.0912578 108.801261,92.0912578 114.005719,87.7262265 L194.750093,20.1583367 C195.461302,19.5638295 195.90591,18.7123154 195.986711,17.7909313 C196.067511,16.8695473 195.777531,15.9538836 195.180345,15.2457867 C194.58398,14.5368726 193.729217,14.0939545 192.804317,14.0134611 Z" id="Path"></path>
                    </g>
                </g>
            </g>
        </g>
    </g>
</svg>