<?xml version="1.0" encoding="UTF-8"?>
<svg width="198px" height="210px" viewBox="0 0 198 210" version="1.1" xmlns="http://www.w3.org/2000/svg" xmlns:xlink="http://www.w3.org/1999/xlink">
    <!-- Generator: Sketch 57 (83077) - https://sketch.com -->
    <title>clock (1)</title>
    <desc>Created with Sketch.</desc>
    <g id="Page-1" stroke="none" stroke-width="1" fill="none" fill-rule="evenodd" fill-opacity="0.736341783">
        <g id="job-page" transform="translate(-11034.000000, -2058.000000)" fill="#282828" fill-rule="nonzero">
            <g id="clock-(1)" transform="translate(11034.000000, 2058.000000)">
                <path d="M191.139,12.2685294 L151.824,12.2685294 L151.824,6.17647059 C151.824,2.76602941 149.137,0 145.824,0 C142.511,0 139.824,2.76602941 139.824,6.17647059 L139.824,12.2685294 L104.771,12.2685294 L104.771,6.17647059 C104.771,2.76602941 102.084,0 98.771,0 C95.458,0 92.771,2.76602941 92.771,6.17647059 L92.771,12.2685294 L59.208,12.2685294 L59.208,6.17647059 C59.208,2.76602941 56.521,0 53.208,0 C49.895,0 47.208,2.76602941 47.208,6.17647059 L47.208,12.2685294 L6.404,12.2685294 C3.091,12.2685294 0.404,15.0345588 0.404,18.445 L0.404,158.004412 C0.404,161.414853 3.091,164.180882 6.404,164.180882 L43.23,164.180882 C49.131,190.136471 71.785,209.529559 98.771,209.529559 C125.757,209.529559 148.411,190.135441 154.312,164.180882 L191.138,164.180882 C194.451,164.180882 197.138,161.414853 197.138,158.004412 L197.138,18.445 C197.138,15.0345588 194.453,12.2685294 191.139,12.2685294 Z M47.208,24.6214706 L47.208,30.2029412 C47.208,33.6133824 49.895,36.3794118 53.208,36.3794118 C56.521,36.3794118 59.208,33.6133824 59.208,30.2029412 L59.208,24.6214706 L92.771,24.6214706 L92.771,30.2029412 C92.771,33.6133824 95.458,36.3794118 98.771,36.3794118 C102.084,36.3794118 104.771,33.6133824 104.771,30.2029412 L104.771,24.6214706 L139.824,24.6214706 L139.824,30.2029412 C139.824,33.6133824 142.511,36.3794118 145.824,36.3794118 C149.137,36.3794118 151.824,33.6133824 151.824,30.2029412 L151.824,24.6214706 L185.139,24.6214706 L185.139,49.8791176 L12.404,49.8791176 L12.404,24.6214706 L47.208,24.6214706 L47.208,24.6214706 Z M98.771,197.176618 C73.929,197.176618 53.718,176.371176 53.718,150.798529 C53.718,125.225882 73.929,104.420441 98.771,104.420441 C123.613,104.420441 143.824,125.224853 143.824,150.798529 C143.824,176.372206 123.614,197.176618 98.771,197.176618 Z M155.799,151.827941 C155.805,151.484118 155.824,151.143382 155.824,150.798529 C155.824,118.414265 130.23,92.0675 98.771,92.0675 C67.312,92.0675 41.718,118.414265 41.718,150.798529 C41.718,151.143382 41.738,151.484118 41.743,151.827941 L12.403,151.827941 L12.403,62.2330882 L185.138,62.2330882 L185.138,151.827941 L155.799,151.827941 L155.799,151.827941 Z" id="Shape"></path>
                <path d="M104.771,152.357059 L104.771,122.477353 C104.771,119.066912 102.084,116.300882 98.771,116.300882 C95.458,116.300882 92.771,119.066912 92.771,122.477353 L92.771,154.916176 C92.771,156.553971 93.403,158.124853 94.528,159.283971 L108.318,173.480588 C109.49,174.686029 111.025,175.289265 112.561,175.289265 C114.096,175.289265 115.632,174.686029 116.804,173.480588 C119.147,171.068676 119.147,167.157941 116.804,164.746029 L104.771,152.357059 Z" id="Path"></path>
            </g>
        </g>
    </g>
</svg>