<?xml version="1.0" encoding="UTF-8"?>
<svg width="196px" height="196px" viewBox="0 0 196 196" version="1.1" xmlns="http://www.w3.org/2000/svg" xmlns:xlink="http://www.w3.org/1999/xlink">
    <!-- Generator: Sketch 57 (83077) - https://sketch.com -->
    <title>settings-cogwheel</title>
    <desc>Created with Sketch.</desc>
    <g id="Page-1" stroke="none" stroke-width="1" fill="none" fill-rule="evenodd" fill-opacity="0.736341783">
        <g id="job-page" transform="translate(-12608.000000, -2040.000000)" fill="#282828" fill-rule="nonzero">
            <g id="settings-cogwheel" transform="translate(12608.000000, 2040.000000)">
                <path d="M187.35134,71.0653132 L181.297438,70.1997963 L173.836307,69.5515398 L171.783752,64.4677096 L176.647882,58.735623 L180.215915,53.8664897 C181.546601,52.0527816 182.162464,50.0820563 182.162464,47.8091532 C182.162464,47.4861466 182.162464,47.2692066 182.053895,46.9436363 C181.945647,44.3474061 180.868608,42.2962497 179.134392,40.5629728 L155.459706,16.8729329 C153.72549,15.1399764 151.684464,13.8453862 149.080739,13.8453862 L148.107464,13.8453862 C145.837771,13.8453862 143.854712,14.4430126 142.16181,15.6847297 L137.29768,19.2544662 L131.566281,24.1213564 L126.377085,22.1737031 L125.729196,14.6025933 L124.86449,8.65356665 C124.174967,3.91357191 119.566725,0 114.702915,0 L81.2977255,0 C76.4313529,0 71.7174248,3.91357191 71.027902,8.65356665 L70.1628758,14.6025933 L69.5124248,22.1737031 L64.4314771,24.1213564 L58.7026405,19.2544662 L53.8385098,15.6847297 C52.2173464,14.4939631 50.2704771,13.8453862 48.1071111,13.8453862 L47.1338366,13.8453862 C44.5320327,13.8453862 42.3779542,15.0339097 40.5399739,16.8729329 L16.8656078,40.5629728 C15.2444444,42.1850559 14.2708497,44.3474061 14.0543529,46.9436363 C13.9457843,47.3775163 13.9457843,47.8091532 13.9457843,48.134403 C13.9457843,50.1906865 14.4348235,52.1729477 15.6755163,53.8664897 L19.2432288,58.735623 L24.3241765,64.4677096 C23.567719,65.8731732 22.9195098,67.4978198 22.1608105,69.5515398 L14.5939935,70.1997963 L8.64833987,71.0653132 C4.01767974,71.7392051 0,76.4743932 0,81.3412834 L0,114.767347 C0,119.634237 3.98757516,124.256309 8.64866013,124.934687 L14.5943137,125.799883 L22.1611307,126.44814 C23.0261569,128.7188 23.7848562,130.449513 24.3244967,131.64028 L19.243549,137.372366 L15.6758366,142.2415 C14.4857451,143.863583 13.9461046,145.702926 13.9461046,147.756646 C13.9461046,148.082217 13.9461046,148.513533 14.0546732,148.947413 C14.2714902,151.543643 15.1317124,153.81206 16.8659281,155.545017 L40.5402941,179.235377 C42.3254314,181.021206 44.5323529,182.154293 47.1341569,182.154293 L48.1074314,182.154293 C50.2707974,182.154293 52.2173464,181.506037 53.8388301,180.317513 L58.7029608,176.747456 L64.4317974,171.663947 C66.3783464,172.63521 68.1080784,173.39466 69.5127451,173.934607 L70.1631961,181.397407 L71.0282222,187.454743 C71.6898824,192.090914 76.4319935,196 81.2980458,196 L114.702915,196 C119.567046,196 124.20251,192.090914 124.86449,187.454743 L125.729196,181.397407 L126.377085,173.934607 C128.106817,173.28635 129.836549,172.529143 131.566281,171.663947 L137.29768,176.747456 L142.16181,180.317513 C143.854712,181.55891 145.838092,182.048227 147.999216,182.048227 L149.081059,182.048227 C151.684784,182.048227 153.836621,180.85746 155.460026,179.235377 L179.134712,155.545017 C180.972693,153.705993 181.945967,151.543643 182.054216,148.947413 C182.162784,148.622163 182.162784,148.407466 182.162784,148.082217 C182.162784,145.811557 181.443157,143.917097 180.216235,142.2415 L176.648203,137.372366 L171.784072,131.64028 L173.836627,126.44814 L181.297758,125.799883 L187.35166,124.934687 C192.090889,124.256309 196,119.633917 196,114.767026 L196,81.3412834 C196,76.4743932 192.090889,71.7436913 187.35134,71.0653132 Z M185.296542,114.550086 L179.781961,115.415283 L177.081196,115.632223 L165.837778,116.49774 C165.404144,118.7684 164.668824,120.893579 163.891549,122.769773 C163.790026,123.097266 163.268961,124.512022 162.053248,127.205026 C161.755725,127.867062 160.863157,129.801257 159.241993,132.939677 L166.26917,141.593243 L167.998902,143.538333 L171.350118,148.190847 L148.107144,171.447007 L143.674085,168.09389 L141.513281,166.363177 L132.864621,159.006443 C130.701255,160.41447 128.761431,161.397269 127.135464,162.144863 C126.166993,162.588036 123.242366,163.658957 122.702725,163.983886 L116.431686,165.929297 L115.56698,176.962153 L115.350163,179.883633 L114.485458,185.401023 L81.5145425,185.401023 L80.6495163,179.883633 L80.3241307,176.962153 L79.4594248,165.929297 L73.2969542,163.983886 L68.8642157,162.144863 C67.2103856,161.457192 65.296183,160.41447 63.1353791,159.006443 L54.486719,166.363177 L52.4319216,168.09389 L47.7846078,171.447007 L24.5413137,148.190847 L27.8925294,143.538333 L29.6222614,141.593243 L36.9725817,132.939677 C35.567915,130.775083 34.488634,128.873574 33.838183,127.205026 L32.108451,122.769773 L30.161902,116.49774 L19.0270523,115.632223 L16.2157974,115.415283 L10.5952092,114.550086 L10.5952092,81.5579029 L16.2157974,80.5840763 L19.0270523,80.3693794 L30.161902,79.5041829 L32.108451,73.3382163 L33.838183,68.902963 C34.488634,67.2344156 35.567915,65.3329061 36.9725817,63.1708763 L29.6222614,54.5173097 L27.8925294,52.2444066 L24.5413137,47.8091532 L47.7846078,24.5529933 L52.4319216,27.9083533 L54.486719,29.6390666 L63.1353791,36.7766168 L65.513,35.4797835 C66.9151046,34.713604 68.1122418,34.192243 68.8642157,33.8577004 C71.0320654,32.8931666 72.5472222,32.3621923 73.2969542,32.126987 C75.2803333,31.3515147 77.2960588,30.6109706 79.4594248,30.1793337 L80.3241307,18.8212271 L80.6495163,16.2249969 L81.5145425,10.60122 L114.485778,10.60122 L115.350484,16.2249969 L115.567301,18.8212271 L116.432007,30.1793337 C118.701699,30.6109706 120.80966,31.386443 122.703046,32.126987 C124.206673,32.5932318 125.708379,33.1421509 127.135784,33.8577004 L130.378431,35.4797835 L132.864941,36.7766168 L141.513601,29.6390666 L143.674405,27.9083533 L148.107464,24.5529933 L171.350438,47.8091532 L167.999222,52.2444066 L166.26949,54.5173097 L159.242314,63.1708763 C160.863477,66.3070532 161.740033,68.2476568 162.053569,68.902963 C162.930124,70.7352568 163.520366,72.1612287 163.891869,73.3382163 C164.705974,75.3066984 165.404784,77.3395896 165.838098,79.5041829 L177.081516,80.3693794 L179.782281,80.5840763 L185.296542,81.5579029 L185.296542,114.550086 L185.296542,114.550086 Z" id="Shape"></path>
                <path d="M97.4456489,64 C88.137341,64 80.2630045,67.2798393 73.7421547,73.8668178 C67.2742131,80.3982331 64,88.2853281 64,97.4998394 C64,106.823229 67.2466367,114.737945 73.7421547,121.244309 C80.2354281,127.748103 88.137341,131 97.4456489,131 C106.647499,131 114.547167,127.748103 121.151388,121.244309 C127.753363,114.737945 131,106.82355 131,97.4998394 C131,88.2853281 127.753363,80.4794903 121.151388,73.8668178 C114.547167,67.2518971 106.647499,64 97.4456489,64 Z M113.466559,113.870773 C109.028366,118.316156 103.615381,120.594572 97.4456489,120.594572 C91.060757,120.594572 85.5948638,118.371719 81.1011979,113.870773 C76.6100973,109.372074 74.3908407,103.897325 74.3908407,97.4998394 C74.3908407,91.3197897 76.6630055,85.9009247 81.1011979,81.4552201 C85.6480926,76.9012794 91.060757,74.6251121 97.4456489,74.6251121 C103.615381,74.6251121 108.972893,76.9542733 113.466559,81.4552201 C117.957659,85.9539186 120.285618,91.3197897 120.285618,97.4998394 C120.285618,103.897325 118.010888,109.31908 113.466559,113.870773 Z" id="Shape"></path>
            </g>
        </g>
    </g>
</svg>