<?xml version="1.0" encoding="UTF-8"?>
<svg width="299px" height="201px" viewBox="0 0 299 201" version="1.1" xmlns="http://www.w3.org/2000/svg" xmlns:xlink="http://www.w3.org/1999/xlink">
    <!-- Generator: Sketch 55 (78076) - https://sketchapp.com -->
    <title>organize_resume_utk5</title>
    <desc>Created with Sketch.</desc>
    <defs>
        <linearGradient x1="50%" y1="100%" x2="50%" y2="0%" id="linearGradient-1">
            <stop stop-color="#808080" stop-opacity="0.25" offset="0%"></stop>
            <stop stop-color="#808080" stop-opacity="0.12" offset="54%"></stop>
            <stop stop-color="#808080" stop-opacity="0.1" offset="100%"></stop>
        </linearGradient>
        <linearGradient x1="49.9975244%" y1="100%" x2="49.9975244%" y2="0%" id="linearGradient-2">
            <stop stop-color="#808080" stop-opacity="0.25" offset="0%"></stop>
            <stop stop-color="#808080" stop-opacity="0.12" offset="54%"></stop>
            <stop stop-color="#808080" stop-opacity="0.1" offset="100%"></stop>
        </linearGradient>
    </defs>
    <g id="Page-1" stroke="none" stroke-width="1" fill="none" fill-rule="evenodd">
        <g id="alldayHR-job-board-+-landing-page" transform="translate(-156.000000, -1973.000000)" fill-rule="nonzero">
            <g id="the-process-copy" transform="translate(150.000000, 1840.000000)">
                <g id="organize_resume_utk5" transform="translate(0.000000, 106.000000)">
                    <path d="M8.34168988,143.052366 C4.62200678,143.653713 -0.0430957728,145.374491 0.000300530065,149.37422 C0.0219986815,151.403381 1.37658328,153.13341 2.69397104,154.616733 C8.29340018,160.964381 14.6815427,166.577786 21.7046514,171.321847 C25.0585657,173.582296 28.6635585,175.744062 30.8922687,179.238042 C33.1209788,182.732023 33.682031,187.178908 33.8587159,191.409925 C34.2933279,201.427355 33.1064874,211.44916 30.3436154,221.091801 C41.263985,223.161052 53.4428475,224.974345 62.5436721,218.439706 C67.9930078,214.526324 71.6785939,207.970099 77.7509765,205.256327 C81.8054311,203.443034 86.39614,203.603394 90.8163634,203.834681 C111.739581,204.930469 132.611136,206.986357 153.431029,210.002344 C162.150586,211.266715 171.037529,212.697612 179.664094,211.063182 C188.290659,209.428751 196.777736,204.096807 199.958065,195.452828 C200.447823,194.120612 200.887986,192.634206 201.985292,191.83241 C202.977208,191.116961 204.275997,191.13238 205.481794,191.175553 L278.350386,193.667289 C282.342846,193.802978 286.474794,193.913996 290.129383,192.279565 C293.672381,190.69756 296.397049,187.653818 299.019425,184.671753 C305.017414,177.868821 311.467965,169.499303 309.704215,160.266312 C308.293835,152.865117 301.988972,147.693532 295.736805,144.073114 C289.484638,140.452696 282.587725,137.489134 277.993917,131.700783 C271.004012,122.890277 271.279889,110.28049 270.845926,98.8487276 C270.450449,88.4972708 269.169765,78.1981096 267.017752,68.0628395 C265.123813,59.1536509 262.485938,50.2321269 257.554258,42.7075784 C252.622578,35.18303 245.080921,29.1572236 236.550447,28.053212 C225.409997,26.609979 214.210651,33.5239288 203.311979,30.5881214 C194.105764,28.1210563 187.769903,19.3537239 180.141453,13.2785762 C166.592508,2.48516655 148.812422,0.22471819 132.002555,0.0181014919 C114.179073,-0.207018194 95.8844316,1.58777163 79.998285,9.91411619 C76.3591951,11.819924 72.8006983,14.1266298 70.280613,17.4941736 C66.418342,22.659591 65.4822218,29.5982115 62.955937,35.6363532 C52.7733045,59.9492793 19.655726,65.1917926 8.90584182,89.2456769 C5.0900669,97.7786381 5.12726374,107.730162 7.90772685,116.691776 C10.898972,126.334916 19.3178548,131.660693 22.6562703,140.067217 C19.0636764,142.367755 12.6968188,142.346168 8.34168988,143.052366 Z" id="Path" opacity="0.504557292"></path>
                    <polygon id="Path" fill="url(#linearGradient-1)" points="50.1618123 27 50.1618123 38.1577223 50.1618123 170 279.902913 170 279.902913 38.1577223 279.902913 27"></polygon>
                    <rect id="Rectangle" fill="#F6F7F9" x="53.171521" y="28" width="224.724919" height="11"></rect>
                    <g id="Group" transform="translate(53.171521, 28.000000)" fill="#6C63FF">
                        <rect id="Rectangle" x="0.299839301" y="0.213888889" width="224.153061" height="10.7586111"></rect>
                    </g>
                    <rect id="Rectangle" fill="#F6F7F9" x="53.171521" y="39" width="224.724919" height="128"></rect>
                    <ellipse id="Oval" fill="#F6F7F9" cx="58.6893204" cy="34.5" rx="2.50809061" ry="2.5"></ellipse>
                    <ellipse id="Oval" fill="#F6F7F9" cx="64.7087379" cy="34.5" rx="2.50809061" ry="2.5"></ellipse>
                    <ellipse id="Oval" fill="#F6F7F9" cx="71.7313916" cy="34.5" rx="2.50809061" ry="2.5"></ellipse>
                    <g id="Group" opacity="0.2" transform="translate(61.197411, 55.000000)" fill="#6C63FF">
                        <rect id="Rectangle" x="0.055526712" y="0.208928571" width="115.066771" height="8.6625"></rect>
                    </g>
                    <g id="Group" opacity="0.2" transform="translate(206.666667, 55.000000)" fill="#6C63FF">
                        <rect id="Rectangle" x="0.257836808" y="0.208928571" width="60.7718249" height="8.6625"></rect>
                    </g>
                    <g id="Group" opacity="0.2" transform="translate(83.268608, 96.000000)" fill="#6C63FF">
                        <rect id="Rectangle" x="0.242616696" y="38.3253555" width="8.11210695" height="26.5175355"></rect>
                        <rect id="Rectangle" x="15.9287192" y="19.3059242" width="8.11210695" height="45.5338863"></rect>
                        <rect id="Rectangle" x="31.6148217" y="0.28957346" width="8.11210695" height="64.550237"></rect>
                        <rect id="Rectangle" x="47.3009242" y="6.4507109" width="8.11210695" height="58.3921801"></rect>
                        <rect id="Rectangle" x="62.9870268" y="24.6630332" width="8.11210695" height="40.1767773"></rect>
                    </g>
                    <g id="Group" opacity="0.2" transform="translate(206.666667, 82.000000)" fill="#6C63FF">
                        <rect id="Rectangle" x="0.124258703" y="0.22322314" width="60.7718249" height="73.5138017"></rect>
                    </g>
                    <rect id="Rectangle-2" fill="#3F36BE" x="6.01941748" y="225" width="294.951456" height="3"></rect>
                    <path d="M278.275945,108 C278.275945,108 275.098522,109.827453 276.077144,112.386503 C276.077144,112.386503 279.378442,113.361968 280.722498,115.797542 C282.066554,118.233117 292.456664,127.006124 292.456664,127.006124 L300.044077,123.230829 C300.044077,123.230829 297.408612,119.724096 289.071749,117.273087 C289.071749,117.273087 284.156964,112.025335 282.444376,111.046783 C280.731789,110.068232 278.275945,108 278.275945,108 Z" id="Path" fill="#797C9C"></path>
                    <rect id="Rectangle" fill="url(#linearGradient-2)" x="216.699029" y="105" width="62.2006472" height="77"></rect>
                    <rect id="Rectangle" fill="#3F36BE" x="217.702265" y="106" width="61.197411" height="74"></rect>
                    <rect id="Rectangle" fill="#E8EAF1" x="221.71521" y="113" width="12.038835" height="12"></rect>
                    <rect id="Rectangle" fill="#E8EAF1" x="227.734628" y="132" width="44.1423948" height="3"></rect>
                    <rect id="Rectangle" fill="#E8EAF1" x="227.734628" y="137" width="44.1423948" height="3"></rect>
                    <rect id="Rectangle" fill="#E8EAF1" x="227.734628" y="143" width="44.1423948" height="3"></rect>
                    <rect id="Rectangle" fill="#E8EAF1" x="227.734628" y="148" width="44.1423948" height="3"></rect>
                    <rect id="Rectangle" fill="#E8EAF1" x="227.734628" y="153" width="44.1423948" height="3"></rect>
                    <rect id="Rectangle" fill="#E8EAF1" x="227.734628" y="159" width="44.1423948" height="3"></rect>
                    <rect id="Rectangle" fill="#E8EAF1" x="227.734628" y="164" width="44.1423948" height="3"></rect>
                    <path d="M296.033254,211 C296.033254,211 296.363937,216.400889 296.918813,217.016889 C297.473688,217.632889 291.941748,218 291.941748,218 L292.71521,211 L296.033254,211 Z" id="Path" fill="#B56E79"></path>
                    <path d="M296.033254,211 C296.033254,211 296.363937,216.400889 296.918813,217.016889 C297.473688,217.632889 291.941748,218 291.941748,218 L292.71521,211 L296.033254,211 Z" id="Path" fill="#B56E79" opacity="0.05"></path>
                    <path d="M297.695281,215.718854 C297.695281,215.718854 296.833616,215.718854 293.752225,217.313378 C293.752225,217.313378 291.657379,216.946606 290.795713,214 C290.795713,214 288.207595,218.416801 286.484264,218.662352 C284.760933,218.907902 281.432906,219.153453 283.649509,222.096951 C285.866112,225.040449 298.928462,223.691475 298.928462,223.691475 C298.928462,223.691475 299.293733,216.576726 297.695281,215.718854 Z" id="Path" fill="#E4E2F3"></path>
                    <path d="M297.695281,215.718854 C297.695281,215.718854 296.833616,215.718854 293.752225,217.313378 C293.752225,217.313378 291.657379,216.946606 290.795713,214 C290.795713,214 288.207595,218.416801 286.484264,218.662352 C284.760933,218.907902 281.432906,219.153453 283.649509,222.096951 C285.866112,225.040449 298.928462,223.691475 298.928462,223.691475 C298.928462,223.691475 299.293733,216.576726 297.695281,215.718854 Z" id="Path" fill="#000000" opacity="0.05"></path>
                    <path d="M295.954693,219.603927 L295.027743,222 L288.932039,220.361086 L289.26789,217.984181 L289.351853,217.409124 L289.583591,215.811741 C289.583591,215.811741 294.752344,214.549809 294.752344,215.172788 C294.820846,215.692746 294.933158,216.206627 295.088196,216.70947 C295.299782,217.485798 295.565105,218.367553 295.759899,218.945805 C295.874088,219.35154 295.954693,219.603927 295.954693,219.603927 Z" id="Path" fill="#B56E79"></path>
                    <path d="M292.251987,187.855931 C291.649701,188.905836 291.649701,190.211403 292.251987,191.261308 C292.484604,191.702526 292.770661,192.111362 293.10326,192.477957 C295.705039,195.409677 296.415433,202.006822 296.415433,202.006822 L296.415433,212.634696 L294.640948,212.774007 L291.802371,213 L287.543007,194.917445 C287.543007,194.917445 285.058128,181.723155 286.242117,179.401307 C287.426107,177.079459 288.490198,162.541593 288.490198,162.541593 L289.473359,161.492117 L291.802371,159 L298.546614,159 C299.08624,159.399295 299.534414,159.916073 299.859493,160.513845 C300.992526,162.448719 302.008659,166.473256 298.903309,173.90317 C294.053449,185.509316 292.632662,187.342028 292.632662,187.342028 C292.487061,187.497642 292.359325,187.670083 292.251987,187.855931 L292.251987,187.855931 Z" id="Path" fill="#4C4C78"></path>
                    <path d="M292.251987,187.855931 C291.649701,188.905836 291.649701,190.211403 292.251987,191.261308 C292.484604,191.702526 292.770661,192.111362 293.10326,192.477957 C295.705039,195.409677 296.415433,202.006822 296.415433,202.006822 L296.415433,212.634696 L294.640948,212.774007 L291.802371,213 L287.543007,194.917445 C287.543007,194.917445 285.058128,181.723155 286.242117,179.401307 C287.426107,177.079459 288.490198,162.541593 288.490198,162.541593 L289.473359,161.492117 L291.802371,159 L298.546614,159 C299.08624,159.399295 299.534414,159.916073 299.859493,160.513845 C300.992526,162.448719 302.008659,166.473256 298.903309,173.90317 C294.053449,185.509316 292.632662,187.342028 292.632662,187.342028 C292.487061,187.497642 292.359325,187.670083 292.251987,187.855931 L292.251987,187.855931 Z" id="Path" fill="#000000" opacity="0.05"></path>
                    <path d="M294.951456,217.148637 L289.935275,218 L290.137801,216.010834 C290.137801,216.010834 294.655006,214.439393 294.655006,215.215168 C294.715055,215.86947 294.814197,216.516083 294.951456,217.148637 L294.951456,217.148637 Z" id="Path" fill="#000000" opacity="0.1"></path>
                    <path d="M291.940546,171.963898 C291.940546,171.963898 292.250213,181.545982 292.293566,187.56601 C292.293566,188.929152 292.293566,190.107251 292.293566,190.958444 C292.300561,191.405624 292.267398,191.852532 292.194473,192.293829 C291.829066,193.38866 292.55988,195.821961 292.55988,195.821961 C294.393705,200.631994 295.144268,205.784481 294.758513,210.915207 L294.758513,216.269085 L288.893426,217 C288.893426,217 289.871973,216.269085 287.180969,209.209738 C285.922747,205.78999 285.284213,202.17491 285.295099,198.532824 C285.280924,197.083005 284.989819,195.649121 284.437322,194.307701 C284.269273,193.855453 284.165057,193.382166 284.127655,192.901383 C283.883019,190.468083 282.783702,187.424145 282.783702,187.424145 C282.783702,187.424145 279.851158,178.788858 279.117248,172.454259 C278.778323,169.441491 278.835578,166.397557 279.287565,163.399545 C279.395366,162.638025 279.542133,161.882482 279.727291,161.135866 C279.727291,161.135866 291.674233,153.647839 296.186077,158.822843 C296.62057,159.32951 296.965111,159.906269 297.20488,160.528312 C297.452528,161.142431 297.645269,161.77712 297.78086,162.424991 C299.18365,169.28696 291.940546,171.963898 291.940546,171.963898 Z" id="Path" fill="#4C4C78"></path>
                    <ellipse id="Oval" fill="#B56E79" cx="292.443366" cy="112.5" rx="6.5210356" ry="6.5"></ellipse>
                    <path d="M289.337435,116.68198 C289.337435,116.68198 291.965584,123.66215 289.337435,127.332136 C286.709285,131.002122 297.719615,129.817772 297.719615,129.817772 L301.97411,124.966434 C301.97411,124.966434 296.968262,124.966434 296.717811,116.68198 C296.46736,108.397525 289.337435,116.68198 289.337435,116.68198 Z" id="Path" fill="#B56E79"></path>
                    <path d="M300.970874,161.447273 C300.091475,161.733163 299.187122,161.94602 298.268198,162.083399 C296.758511,162.303152 294.975176,162.311827 293.932846,161.447273 C293.317903,160.93548 291.780545,160.868976 289.963387,161.036682 C286.110766,161.38366 280.899121,162.733983 279.902913,163 C280.00995,162.286024 280.155676,161.577652 280.339522,160.87765 C280.339522,160.87765 292.201781,153.857126 296.681644,158.709037 L299.270555,158.709037 C299.824093,159.08198 300.283822,159.564652 300.617281,160.122973 C300.841736,161.030899 300.970874,161.447273 300.970874,161.447273 Z" id="Path" fill="#000000" opacity="0.1"></path>
                    <path d="M295.954693,219.613365 L295.027743,222 L288.932039,220.367542 L289.26789,218 C290.315747,220.195704 292.102476,220.494829 292.102476,220.494829 C293.266484,219.884674 294.487445,219.377618 295.749823,218.980111 C295.874088,219.361973 295.954693,219.613365 295.954693,219.613365 Z" id="Path" fill="#000000" opacity="0.1"></path>
                    <path d="M296.691461,218.718854 C296.691461,218.718854 295.829829,218.718854 292.74856,220.313378 C292.74856,220.313378 290.653797,219.946606 289.792165,217 C289.792165,217 287.204149,221.416801 285.480886,221.662352 C283.757623,221.907902 280.429728,222.153453 282.646244,225.096951 C284.862759,228.040449 297.924593,226.691475 297.924593,226.691475 C297.924593,226.691475 298.292971,219.576726 296.691461,218.718854 Z" id="Path" fill="#E4E2F3"></path>
                    <path d="M266.860841,113 C266.860841,113 267.09974,108.600105 272.110394,109.029503 C272.391587,109.055829 272.640589,109.208482 272.775843,109.437464 C272.911097,109.666446 272.91518,109.942258 272.786755,110.174563 L271.759803,111.957995 L266.860841,113 Z" id="Path" fill="#B56E79"></path>
                    <path d="M296.2265,126.795932 C296.2265,126.795932 292.053785,126.704255 290.436893,125.5 C290.436893,125.5 287.268981,126.918191 285.031178,125.71088 C282.793374,124.503568 277.567629,124.625827 277.567629,124.625827 C274.79589,122.979309 272.891266,120.253363 272.341885,117.146608 C272.341885,117.146608 271.471978,114.010654 271.711517,113.173177 C271.711517,113.173177 268.477733,109.914964 266.860841,114.258229 C267.491209,117.27498 267.979743,117.033518 267.856822,119.454254 L269.84563,124.760313 C269.84563,124.760313 269.968552,126.569752 273.577405,128.981319 C277.186257,131.392886 281.289948,135.134024 281.289948,135.134024 C281.289948,135.134024 279.112029,136.280206 279.922051,141.528191 C280.911728,147.94681 279.424061,157.088757 279.424061,157.088757 L279.424061,163 C279.424061,163 291.864359,159.503381 293.976089,161.309764 C296.087819,163.116146 301.190642,161.309764 301.190642,161.309764 C301.190642,161.309764 300.560275,159.258862 299.696672,154.313469 C298.833069,149.368076 299.819594,144.532716 299.819594,144.532716 C299.819594,144.532716 303.053378,136.209906 304.547348,132.83249 C306.041318,129.455074 303.428446,124.885629 300.815574,123.183166 C298.202702,121.480704 297.231936,122.507683 297.231936,122.507683 C297.231936,122.507683 301.824161,125.71088 296.2265,126.795932 Z" id="Path" fill="#797C9C"></path>
                    <path d="M278.275945,109 C278.275945,109 275.098522,110.827453 276.077144,113.386503 C276.077144,113.386503 279.378442,114.361968 280.722498,116.797542 C282.066554,119.233117 292.456664,128.006124 292.456664,128.006124 L300.044077,124.230829 C300.044077,124.230829 297.408612,120.724096 289.071749,118.273087 C289.071749,118.273087 284.156964,113.025335 282.444376,112.046783 C280.731789,111.068232 278.275945,109 278.275945,109 Z" id="Path" fill="#000000" opacity="0.05"></path>
                    <path d="M279.902913,143.992001 C279.902913,143.992001 280.91677,143.789359 285.995714,143.157434 C291.074658,142.52551 299.967638,144 299.967638,144" id="Path" fill="#000000" opacity="0.05"></path>
                    <path d="M182.588997,130 C182.588997,130 181.208357,128.587662 177.244174,128.412338 C173.279992,128.237013 171.553398,127 171.553398,127" id="Path" fill="#000000" opacity="0.1"></path>
                    <path d="M293.970164,103.190971 C292.974631,103.316368 291.837311,103.661974 291.478316,104.610096 C291.382812,104.970508 291.307275,105.336056 291.252059,105.705025 C290.880997,107.157793 289.270044,107.845947 288.274512,108.940875 C287.396634,109.919582 287.010488,111.243895 286.723895,112.537624 C285.907952,116.241052 285.71316,120.057367 286.147693,123.826399 L286.72589,124 C288.481647,122.424893 299.617547,124.884626 299.674865,122.508203 C299.732184,120.13178 299.346038,117.752298 299.545144,115.38505 C299.62358,114.467512 299.964475,113.345057 300.863471,113.164608 C301.151626,113.152672 301.438252,113.115837 301.720232,113.054504 C302.441238,112.773125 302.371853,111.742424 302.576993,110.986985 C302.809284,110.139791 303.52124,109.485281 303.723363,108.628912 C304.193979,106.619504 301.671963,104.218613 300.018777,103.518226 C298.308271,102.799488 295.744021,102.970762 293.970164,103.190971 Z" id="Path" fill="#2F2E41" transform="translate(294.851618, 113.500000) scale(-1, 1) translate(-294.851618, -113.500000) "></path>
                </g>
            </g>
        </g>
    </g>
</svg>