<?xml version="1.0" encoding="UTF-8"?>
<svg width="231px" height="171px" viewBox="0 0 231 171" version="1.1" xmlns="http://www.w3.org/2000/svg" xmlns:xlink="http://www.w3.org/1999/xlink">
    <!-- Generator: Sketch 55 (78076) - https://sketchapp.com -->
    <title>add_content_d1tf</title>
    <desc>Created with Sketch.</desc>
    <g id="Page-1" stroke="none" stroke-width="1" fill="none" fill-rule="evenodd">
        <g id="alldayHR-job-board-+-landing-page" transform="translate(-631.000000, -2003.000000)" fill-rule="nonzero">
            <g id="the-process-copy" transform="translate(150.000000, 1840.000000)">
                <g id="add_content_d1tf" transform="translate(482.000000, 163.000000)">
                    <path d="M12.8489676,169.999998 L9.03930131,159.684206 C9.03930131,159.684206 13.2299365,161.710519 13.4204197,164.289466 C13.4204197,164.289466 12.4680012,151.394733 10.5631693,148.631576 C10.5631693,148.631576 13.6109028,148.999999 17.0396027,163.368415 C17.0396027,163.368415 17.6110523,146.789473 12.4680012,142 C12.4680012,142 19.5158942,147.526314 20.0873362,159.500003 L20.0873362,170 L12.8489676,169.999998 Z" id="Path" fill="#F2F2F2"></path>
                    <path d="M139.191387,170 L141.615721,163.000011 C141.615721,163.000011 138.948953,164.375009 138.827737,166.125006 C138.827737,166.125006 139.43382,157.375002 140.645987,155.500003 C140.645987,155.500003 138.70652,155.750002 136.52462,165.500007 C136.52462,165.500007 136.16097,154.250002 139.43382,151 C139.43382,151 134.948803,154.749994 134.585153,162.875006 L134.585153,170 L139.191387,170 Z" id="Path" fill="#F2F2F2"></path>
                    <path d="M100.159607,169 L98.4279476,163.842104 C98.4279476,163.842104 100.332782,164.855262 100.419365,166.144738 C100.419365,166.144738 99.9864476,159.697369 99.1206135,158.315789 C99.1206135,158.315789 100.505948,158.499999 102.064448,165.684211 C102.064448,165.684211 102.324199,157.394736 99.9864476,155 C99.9864476,155 103.190031,157.763158 103.449782,163.749999 L103.449782,169 L100.159607,169 Z" id="Path" fill="#F2F2F2"></path>
                    <path d="M97.9285333,131.99999 C96.9404561,131.99999 95.9463467,131.968634 94.9679206,131.907349 L94.9992797,131.42181 C95.9685414,131.482621 96.9529998,131.513513 97.9258803,131.513513 L97.9550681,131.51327 L97.9550681,131.999757 L97.93191,132 L97.9285333,131.99999 Z M100.943663,131.903311 L100.911338,131.417772 C101.891214,131.354823 102.881463,131.259333 103.854343,131.13415 L103.918509,131.616361 C102.935021,131.743205 101.934154,131.839649 100.943663,131.903311 L100.943663,131.903311 Z M91.9923509,131.624434 C91.0071688,131.498536 90.014507,131.339146 89.0418685,131.150299 L89.1373958,130.672839 C90.0994199,130.859786 91.0814673,131.017515 92.056035,131.141749 L91.9923509,131.624434 Z M106.868268,131.138434 L106.772259,130.661448 C107.734764,130.473314 108.703784,130.25121 109.652059,130.001317 L109.779911,130.471175 C108.821264,130.72391 107.84163,130.94839 106.868268,131.138424 L106.868268,131.138434 Z M86.1295012,130.486378 C85.1723014,130.235295 84.209314,129.949053 83.267553,129.635269 L83.4257985,129.174437 C84.3574293,129.484667 85.3099233,129.768056 86.2566396,130.016286 L86.1295012,130.486378 Z M112.640656,129.61625 L112.481927,129.155418 C113.408496,128.845426 114.337709,128.500514 115.244008,128.129947 L115.433615,128.579378 C114.51718,128.953744 113.577601,129.302694 112.640656,129.61625 Z M80.4644645,128.598144 C79.5477907,128.224727 78.6303957,127.815679 77.7377248,127.38217 L77.9562776,126.946034 C78.8391789,127.374561 79.7465647,127.779336 80.6533478,128.148713 L80.4644645,128.598144 Z M118.152516,127.363396 L117.93348,126.927261 C118.813486,126.498734 119.689634,126.036476 120.537557,125.553314 L120.78507,125.97424 C119.927726,126.462875 119.042161,126.930357 118.152514,127.363396 L118.152516,127.363396 Z M75.0987831,125.992539 C74.238909,125.50344 73.3842444,124.979658 72.5585158,124.435924 L72.8330357,124.031626 C73.6499606,124.569423 74.4953496,125.087503 75.3458024,125.571139 L75.0987831,125.992539 Z M123.320377,124.41787 L123.045376,124.013573 C123.859766,123.476966 124.667645,122.905912 125.446818,122.316093 L125.747873,122.701863 C124.96025,123.298094 124.143456,123.875323 123.32038,124.41787 L123.320377,124.41787 Z M70.1274013,122.719678 C69.3403978,122.124872 68.5625341,121.496336 67.8154564,120.851645 L68.1411167,120.485829 C68.8801243,121.123631 69.6496462,121.745278 70.4282164,122.333911 L70.1274013,122.719678 Z M128.057649,120.833232 L127.731507,120.467654 C128.469188,119.829971 129.195289,119.160101 129.889789,118.476462 L130.239091,118.820423 C129.537112,119.511549 128.803292,120.188663 128.057649,120.833232 Z M65.6323295,118.839778 C64.9297473,118.148886 64.2415195,117.426638 63.5868196,116.692869 L63.9578425,116.371712 C64.6056654,117.097522 65.286416,117.812169 65.9813974,118.495579 L65.6323295,118.839778 Z M132.283752,116.671965 L131.912259,116.351047 C132.560203,115.624048 133.192224,114.86676 133.790475,114.100093 L134.182233,114.396546 C133.577468,115.171527 132.938694,115.93701 132.283752,116.671965 Z M61.6877402,114.419824 C61.0827356,113.645556 60.4958227,112.841711 59.943406,112.030623 L60.3537397,111.759586 C60.9001241,112.562122 61.4807652,113.357298 62.0792559,114.123135 L61.6877402,114.419824 Z M135.926807,112.003543 L135.516234,111.73298 C136.06286,110.928662 136.589463,110.09655 137.081333,109.259452 L137.50879,109.503169 C137.011617,110.349297 136.479463,111.190552 135.926807,112.003543 Z M58.3613018,109.535 C57.8635234,108.68935 57.3882928,107.817458 56.9488999,106.94353 L57.3915584,106.727605 C57.8262531,107.592022 58.2964099,108.454539 58.7887613,109.291044 L58.3613018,109.535 Z M138.921674,106.905404 L138.478768,106.689953 C138.913705,105.823033 139.325244,104.929763 139.702045,104.03495 L140.158452,104.221185 C139.777556,105.125856 139.361435,106.028993 138.921674,106.905404 L138.921674,106.905404 Z M55.7123559,104.267019 C55.3316991,103.365546 54.9767324,102.440438 54.6573365,101.517346 L55.1250799,101.360568 C55.4408496,102.273444 55.7919603,103.188577 56.168519,104.080313 L55.7123559,104.267019 Z M141.213598,101.461762 L140.745612,101.305697 C141.0609,100.389732 141.349169,99.4520329 141.60246,98.518491 L142.079613,98.6441506 C141.823669,99.5877896 141.532263,100.535822 141.213598,101.461762 Z M53.7872234,98.7009236 C53.5298293,97.7571679 53.3011438,96.7926271 53.1073176,95.8342621 L53.5919472,95.7392439 C53.7834835,96.6872758 54.0097581,97.6412478 54.2643757,98.5747897 L53.7872234,98.7009236 Z M142.755539,95.7764188 L142.270667,95.6821157 C142.461238,94.7340838 142.622139,93.7672856 142.749025,92.8085631 L143.238721,92.8715121 C143.110629,93.8406844 142.947799,94.8180539 142.755539,95.7764188 Z M52.6204031,92.9300657 C52.4912268,91.9636251 52.3925623,90.9781799 52.3269441,90.0009271 L52.8200169,89.9688579 C52.8847878,90.935656 52.9824864,91.9105323 53.1102176,92.8666399 L52.6204031,92.9300657 Z M143.528443,89.9417897 L143.03537,89.9104332 C143.09833,88.9492175 143.130416,87.9700674 143.130416,87.0000632 L143.130169,86.8846174 L143.624207,86.8846174 L143.624454,86.9985186 C143.624449,87.9803931 143.592124,88.9701145 143.528443,89.9417897 Z M52.7211128,87.0581376 L52.2270742,87.0581376 L52.2271953,86.9985138 C52.2271953,86.0400297 52.2581937,85.0699064 52.3194644,84.1166471 L52.8125396,84.1472958 C52.7519902,85.090458 52.7212339,86.0502483 52.7212339,87.0000559 L52.7211128,87.0581376 Z M143.02766,83.9743594 C142.962047,83.0093442 142.863146,82.0344679 142.733843,81.0769348 L143.223539,81.0127988 C143.354287,81.9809081 143.454154,82.9663484 143.520733,83.9418158 L143.02766,83.9743594 Z M53.0950136,81.2486745 L52.6050755,81.1864407 C52.7319644,80.217266 52.893347,79.2396605 53.0843992,78.2808188 L53.5692708,78.37465 C53.3801479,79.3229179 53.2205735,80.2899545 53.0950136,81.2486745 Z M142.247981,78.204686 C142.055239,77.2572525 141.827759,76.3036332 141.571815,75.3700913 L142.048968,75.2432447 C142.307565,76.1871196 142.537458,77.1513053 142.732371,78.1091959 L142.247981,78.204686 Z M54.234101,75.5373212 L53.7567066,75.4123743 C54.0116873,74.4671932 54.3020066,73.5188037 54.619466,72.5935758 L55.0874514,72.7491666 C54.7734899,73.6642998 54.4864263,74.6023661 54.234101,75.5373212 Z M140.707497,72.5853907 C140.39028,71.671802 140.038075,70.7572647 139.66056,69.8670737 L140.116484,69.6796521 C140.498111,70.5797018 140.854165,71.5043362 141.175001,72.4279002 L140.707497,72.5853907 Z M56.1270321,70.0186168 L55.6703824,69.8328566 C56.0495965,68.9290074 56.4645123,68.0253966 56.9036706,67.1470831 L57.3468084,67.3620593 C56.9124744,68.2307525 56.5020222,69.1245047 56.1270321,70.0186168 Z M138.433907,67.2213162 C137.999212,66.3589182 137.528087,65.4971136 137.033569,64.6595386 L137.460545,64.4151056 C137.960616,65.2617074 138.436802,66.1331346 138.876323,67.0049195 L138.433907,67.2213162 Z M58.7411187,64.7903063 L58.3131751,64.547306 C58.8090243,63.7008185 59.3402121,62.8588553 59.8921446,62.0449138 L60.3029599,62.3150017 C59.7570572,63.1202619 59.2315384,63.9530864 58.7411187,64.7903063 L58.7411187,64.7903063 Z M135.465333,62.1927767 C134.917259,61.3901217 134.335654,60.5956616 133.736692,59.8313685 L134.12797,59.5342027 C134.733217,60.3068099 135.321335,61.1099343 135.875439,61.9212659 L135.465333,62.1927767 Z M62.0255811,59.945744 L61.6334626,59.6497653 C62.2375014,58.873833 62.8753126,58.1074019 63.5291677,57.3719721 L63.9009021,57.6924162 C63.254045,58.4200087 62.6231084,59.1781258 62.0255811,59.945744 L62.0255811,59.945744 Z M131.855089,57.5852845 C131.20691,56.8609052 130.525431,56.147202 129.828758,55.4639114 L130.177576,55.1192353 C130.881485,55.8098889 131.570678,56.5314246 132.225613,57.2636484 L131.855089,57.5852845 Z M65.9205985,55.5642737 L65.5708192,55.2207871 C66.2718328,54.5288249 67.0049317,53.85064 67.749727,53.2052371 L68.0761111,53.5703457 C67.3392699,54.2089742 66.6140138,54.8797937 65.9205985,55.5642737 L65.9205985,55.5642737 Z M127.666376,53.4765145 C126.926281,52.8393064 126.156035,52.2184881 125.377105,51.6312836 L125.677193,51.2450396 C126.464809,51.8385393 127.243498,52.4661222 127.991552,53.1102311 L127.666376,53.4765145 Z M70.3582606,51.7190556 L70.0567241,51.3337579 C70.8424085,50.7375242 71.6584886,50.1591081 72.4820485,49.6145442 L72.7575318,50.0183649 C71.9427782,50.5571153 71.1355043,51.1293652 70.3582606,51.7190532 L70.3582606,51.7190556 Z M122.969872,49.9365378 C122.152586,49.399928 121.306353,48.8830355 120.455052,48.4001119 L120.701578,47.9784736 C121.562287,48.4667436 122.417687,48.9893353 123.2439,49.5317636 L122.969872,49.9365378 Z M75.2635474,48.4756512 L75.0155648,48.0549615 C75.8725315,47.5650301 76.7576041,47.0964774 77.6462955,46.6623704 L77.8658142,47.0982628 C76.9867738,47.5276168 76.1113498,47.9910614 75.2635474,48.4756488 L75.2635474,48.4756512 Z M117.842534,47.0287779 C116.960115,46.6015595 116.052368,46.1981012 115.144138,45.8293075 L115.332297,45.3796402 C116.250658,45.7523453 117.168537,46.1603231 118.060606,46.5921752 L117.842534,47.0287779 Z M80.5535915,45.8921349 L80.3635028,45.4430611 C81.2788476,45.0676245 82.2180767,44.7174876 83.1551345,44.4025066 L83.3148275,44.8628645 C82.3879074,45.1745203 81.4589321,45.5208577 80.5535915,45.8921349 Z M112.370232,44.8072687 C111.440049,44.4985927 110.487192,44.2165007 109.538435,43.9688618 L109.66484,43.4985285 C110.624211,43.7488991 111.58744,44.0340681 112.527996,44.3461982 L112.370232,44.8072687 Z M86.1432478,44.0136405 L86.0149139,43.5437816 C86.9727164,43.2898475 87.9519873,43.064064 88.9253495,42.8724854 L89.0223244,43.3494713 C88.0593394,43.5390383 87.0908039,43.7624478 86.1432528,44.0136502 L86.1432478,44.0136405 Z M106.656471,43.3160959 C105.694447,43.1306932 104.712399,42.9742731 103.73759,42.8509875 L103.80031,42.3685383 C104.785732,42.4930109 105.778636,42.651214 106.751514,42.8386356 L106.656471,43.3160959 Z M91.9392813,42.8733173 L91.8746339,42.3911064 C92.8559551,42.2633087 93.8565759,42.1654397 94.8492402,42.1003526 L94.8820468,42.5857718 C93.9002365,42.6501559 92.9099905,42.7469498 91.9392788,42.873327 L91.9392813,42.8733173 Z M100.793863,42.5746142 C99.8455882,42.5161798 98.8806691,42.4864871 97.9258828,42.4864871 L97.8378327,42.4866038 L97.8378327,42.0001168 L97.9249169,42 C98.8910415,42 99.8663354,42.029919 100.824741,42.0890782 L100.793863,42.5746142 Z" id="Shape" fill="#E6E6E6"></path>
                    <path d="M170.242944,89.9999903 C169.254867,89.9999903 168.260757,89.9686337 167.282331,89.9073485 L167.31369,89.4218101 C168.282952,89.482621 169.26741,89.5135129 170.240291,89.5135129 L170.269479,89.5132697 L170.269479,89.9997568 L170.246321,90 L170.242944,89.9999903 Z M173.258074,89.9033107 L173.225749,89.4177723 C174.205625,89.3548233 175.195873,89.2593332 176.168754,89.1341503 L176.232919,89.6163612 C175.249432,89.7432054 174.248564,89.839649 173.258074,89.9033107 Z M164.306761,89.6244344 C163.321579,89.4985364 162.328917,89.3391462 161.356279,89.1502993 L161.451806,88.672839 C162.41383,88.8597862 163.395878,89.017515 164.370445,89.1417492 L164.306761,89.6244344 Z M179.182678,89.1384338 L179.086669,88.6614479 C180.049175,88.4733136 181.018195,88.2512104 181.966469,88.0013165 L182.094322,88.4711755 C181.135674,88.7239104 180.15604,88.9483901 179.182678,89.1384241 L179.182678,89.1384338 Z M158.443912,88.4863782 C157.486712,88.2352949 156.523725,87.9490532 155.581963,87.6352691 L155.740209,87.1744369 C156.67184,87.4846673 157.624334,87.7680557 158.57105,88.0162857 L158.443912,88.4863782 Z M184.955067,87.6162499 L184.796337,87.1554177 C185.722907,86.8454257 186.652119,86.5005137 187.558418,86.1299467 L187.748025,86.5793781 C186.831591,86.9537445 185.892011,87.3026944 184.955067,87.6162499 Z M152.778875,86.5981443 C151.862201,86.2247266 150.944806,85.8156785 150.052135,85.3821699 L150.270688,84.9460343 C151.153589,85.3745613 152.060975,85.7793355 152.967758,86.148713 L152.778875,86.5981443 Z M190.466927,85.3633964 L190.24789,84.9272607 C191.127896,84.4987337 192.004044,84.0364762 192.851967,83.5533142 L193.099481,83.9742399 C192.242136,84.4628748 191.356572,84.9303572 190.466924,85.3633964 L190.466927,85.3633964 Z M147.413194,83.9925391 C146.553319,83.5034396 145.698655,82.9796584 144.872926,82.435924 L145.147446,82.0316265 C145.964371,82.5694233 146.80976,83.0875029 147.660213,83.5711391 L147.413194,83.9925391 Z M195.634788,82.4178704 L195.359786,82.0135729 C196.174177,81.4769655 196.982056,80.9059124 197.761229,80.3160931 L198.062284,80.7018627 C197.27466,81.298094 196.457866,81.875323 195.63479,82.4178704 L195.634788,82.4178704 Z M142.441812,80.7196779 C141.654808,80.124872 140.876945,79.4963356 140.129867,78.8516454 L140.455527,78.485829 C141.194535,79.1236306 141.964057,79.7452783 142.742627,80.3339107 L142.441812,80.7196779 Z M200.37206,78.8332319 L200.045918,78.4676539 C200.783599,77.8299715 201.5097,77.1601007 202.204199,76.4764623 L202.553502,76.8204232 C201.851522,77.5115487 201.117702,78.1886633 200.37206,78.8332319 Z M137.94674,76.8397781 C137.244158,76.1488862 136.55593,75.4266378 135.90123,74.6928694 L136.272253,74.3717125 C136.920076,75.097522 137.600827,75.8121691 138.295808,76.4955788 L137.94674,76.8397781 Z M204.598162,74.671965 L204.22667,74.3510465 C204.874614,73.6240476 205.506635,72.8667599 206.104886,72.1000928 L206.496644,72.3965458 C205.891879,73.171527 205.253104,73.9370095 204.598162,74.671965 L204.598162,74.671965 Z M134.002151,72.4198242 C133.397146,71.6455557 132.810233,70.8417113 132.257817,70.030623 L132.66815,69.7595865 C133.214535,70.5621223 133.795176,71.3572976 134.393666,72.1231352 L134.002151,72.4198242 Z M208.241217,70.0035427 L207.830644,69.7329805 C208.377271,68.9286617 208.903874,68.0965499 209.395744,67.2594516 L209.823201,67.5031695 C209.326027,68.349297 208.793874,69.1905523 208.241217,70.0035427 L208.241217,70.0035427 Z M130.675712,67.5350003 C130.177934,66.6893496 129.702703,65.8174577 129.26331,64.9435299 L129.705969,64.7276051 C130.140664,65.5920221 130.61082,66.4545393 131.103172,67.2910441 L130.675712,67.5350003 Z M211.236084,64.9054039 L210.793179,64.6899534 C211.228115,63.8230335 211.639654,62.9297629 212.016455,62.0349503 L212.472863,62.2211848 C212.091967,63.1258561 211.675845,64.0289926 211.236084,64.9054039 L211.236084,64.9054039 Z M128.026766,62.2670192 C127.64611,61.3655465 127.291143,60.4404378 126.971747,59.5173456 L127.43949,59.3605679 C127.75526,60.2734438 128.106371,61.1885771 128.482929,62.0803127 L128.026766,62.2670192 Z M213.528008,59.4617621 L213.060023,59.305697 C213.375311,58.3897319 213.66358,57.4520329 213.916871,56.518491 L214.394023,56.6441506 C214.138079,57.5877896 213.846673,58.5358215 213.528008,59.4617621 Z M126.101634,56.7009236 C125.84424,55.7571679 125.615554,54.7926271 125.421728,53.8342621 L125.906358,53.7392439 C126.097894,54.6872758 126.324169,55.6412478 126.578786,56.5747897 L126.101634,56.7009236 Z M215.06995,53.7764188 L214.585078,53.6821157 C214.775648,52.7340838 214.936549,51.7672856 215.063436,50.8085631 L215.553132,50.8715121 C215.42504,51.8406844 215.26221,52.8180539 215.06995,53.7764188 Z M124.934814,50.9300657 C124.805637,49.9636251 124.706973,48.9781799 124.641355,48.0009271 L125.134427,47.9688579 C125.199198,48.935656 125.296897,49.9105323 125.424628,50.8666399 L124.934814,50.9300657 Z M215.842853,47.9417824 L215.34978,47.9104259 C215.412741,46.9492102 215.444826,45.9700601 215.444826,45.0000559 L215.444579,44.8846101 L215.938618,44.8846101 L215.938865,44.9985113 C215.93886,45.9803931 215.906535,46.9701145 215.842853,47.9417897 L215.842853,47.9417824 Z M125.035523,45.0581303 L124.541485,45.0581303 L124.541606,44.9985065 C124.541606,44.0400224 124.572604,43.0698991 124.633875,42.1166398 L125.12695,42.1472885 C125.066401,43.0904507 125.035644,44.050241 125.035644,45.0000486 L125.035523,45.0581303 Z M215.342071,41.9743521 C215.276458,41.0093369 215.177556,40.0344606 215.048254,39.0769276 L215.53795,39.0127915 C215.668697,39.9809008 215.768565,40.9663411 215.835144,41.9418085 L215.342071,41.9743521 Z M125.409424,39.2486745 L124.919486,39.1864407 C125.046375,38.217266 125.207758,37.2396605 125.39881,36.2808188 L125.883681,36.37465 C125.694558,37.3229179 125.534984,38.2899545 125.409424,39.2486745 Z M214.562392,36.204686 C214.36965,35.2572525 214.14217,34.3036332 213.886226,33.3700913 L214.363378,33.2432447 C214.621975,34.1871196 214.851869,35.1513053 215.046782,36.1091959 L214.562392,36.204686 Z M126.548512,33.5373212 L126.071117,33.4123743 C126.326098,32.4671932 126.616417,31.5188037 126.933876,30.5935758 L127.401862,30.7491666 C127.0879,31.6642998 126.800837,32.6023661 126.548512,33.5373212 Z M213.021908,30.5853907 C212.70469,29.671802 212.352485,28.7572647 211.974971,27.8670737 L212.430894,27.6796521 C212.812522,28.5797018 213.168575,29.5043362 213.489411,30.4279002 L213.021908,30.5853907 Z M128.441443,28.0186168 L127.984793,27.8328566 C128.364007,26.9290074 128.778923,26.0253966 129.218081,25.1470831 L129.661219,25.3620593 C129.226885,26.2307525 128.816433,27.1245047 128.441443,28.0186168 Z M210.748317,25.2213162 C210.313623,24.3589182 209.842498,23.4971136 209.34798,22.6595386 L209.774955,22.4151056 C210.275026,23.2617074 210.751212,24.1331346 211.190734,25.0049195 L210.748317,25.2213162 Z M131.055529,22.7903063 L130.627586,22.547306 C131.123435,21.7008185 131.654623,20.8588553 132.206555,20.0449138 L132.61737,20.3150017 C132.071468,21.1202619 131.545949,21.9530864 131.055529,22.7903063 Z M207.779743,20.1927767 C207.231669,19.3901217 206.650065,18.5956616 206.051102,17.8313685 L206.442381,17.5342027 C207.047628,18.3068099 207.635746,19.1099343 208.18985,19.9212659 L207.779743,20.1927767 Z M134.339992,17.945744 L133.947873,17.6497653 C134.551912,16.873833 135.189723,16.1074019 135.843578,15.3719721 L136.215313,15.6924162 C135.568456,16.4200087 134.937519,17.1781258 134.339992,17.945744 L134.339992,17.945744 Z M204.1695,15.5852845 C203.521321,14.8609052 202.839842,14.147202 202.143168,13.4639114 L202.491987,13.1192353 C203.195895,13.8098889 203.885089,14.5314246 204.540024,15.2636484 L204.1695,15.5852845 Z M138.235009,13.5642737 L137.88523,13.2207871 C138.586243,12.5288249 139.319342,11.85064 140.064137,11.2052371 L140.390522,11.5703457 C139.65368,12.2089742 138.928424,12.8797937 138.235009,13.5642737 L138.235009,13.5642737 Z M199.980786,11.4765145 C199.240692,10.8393064 198.470446,10.2184881 197.691515,9.63128362 L197.991604,9.24503964 C198.77922,9.83853927 199.557909,10.4661222 200.305962,11.1102311 L199.980786,11.4765145 Z M142.672671,9.71905561 L142.371135,9.33375786 C143.156819,8.73752417 143.972899,8.15910808 144.796459,7.61454419 L145.071942,8.01836494 C144.257189,8.55711531 143.449915,9.12936518 142.672671,9.71905318 L142.672671,9.71905561 Z M195.284282,7.93653782 C194.466997,7.39992799 193.620763,6.88303548 192.769463,6.40011194 L193.015988,5.9784736 C193.876697,6.46674364 194.732098,6.98933534 195.558311,7.53176355 L195.284282,7.93653782 Z M147.577958,6.47565121 L147.329975,6.05496152 C148.186942,5.56503013 149.072015,5.09647741 149.960706,4.66237041 L150.180225,5.09826282 C149.301184,5.52761684 148.42576,5.99106145 147.577958,6.47564878 L147.577958,6.47565121 Z M190.156945,5.02877787 C189.274525,4.60155953 188.366779,4.19810121 187.458548,3.82930753 L187.646708,3.37964024 C188.565069,3.75234527 189.482948,4.16032306 190.375016,4.59217519 L190.156945,5.02877787 Z M152.868002,3.8921349 L152.677913,3.44306112 C153.593258,3.06762446 154.532487,2.71748756 155.469545,2.40250664 L155.629238,2.86286449 C154.702318,3.17452026 153.773343,3.5208577 152.868002,3.8921349 Z M184.684643,2.80726874 C183.754459,2.4985927 182.801602,2.21650074 181.852846,1.9688618 L181.97925,1.49852854 C182.938621,1.74889911 183.901851,2.03406809 184.842406,2.3461982 L184.684643,2.80726874 Z M158.457658,2.0136405 L158.329324,1.54378157 C159.287127,1.28983532 160.266398,1.06406397 161.23976,0.872485362 L161.336735,1.34947133 C160.37375,1.53903832 159.405214,1.76244777 158.457663,2.01365023 L158.457658,2.0136405 Z M178.970881,1.31609589 C178.008857,1.13069324 177.02681,0.97427305 176.052,0.850987498 L176.114721,0.368538276 C177.100142,0.493010857 178.093046,0.651214018 179.065924,0.838635592 L178.970881,1.31609589 Z M164.253692,0.873317255 L164.189044,0.391106411 C165.170366,0.263308692 166.170986,0.165439656 167.163651,0.100352552 L167.196457,0.585771778 C166.214647,0.650155908 165.224401,0.746949807 164.253689,0.873326984 L164.253692,0.873317255 Z M173.108274,0.574614197 C172.159999,0.516179803 171.19508,0.486487065 170.240293,0.486487065 L170.152243,0.486603822 L170.152243,0.000116756896 L170.239327,0 C171.205452,0 172.180746,0.0299189545 173.139151,0.089078214 L173.108274,0.574614197 Z" id="Shape" fill="#E6E6E6"></path>
                    <path d="M55.0221543,34 L55.0221392,34 C48.0624823,34 42.9957757,38.5956595 41.2877269,45.1569069 L39.1703057,55 L40.6768559,55 L43.941048,46.9418605 L43.2538552,55 L44.9454148,55 L46.2008734,50.8488372 L45.9365717,55 L66.2882096,55 L66.2882096,44.9561933 C66.2882076,42.0504278 65.1012504,39.2636757 62.9884551,37.2089908 C60.8756598,35.1543059 58.0100957,33.9999974 55.0221543,34 L55.0221543,34 Z" id="Path" fill="#2F2E41"></path>
                    <path d="M52.4781659,46 C52.4781659,46 53.4825328,51.8723404 50.9716157,52.8510638 C48.4606987,53.8297872 48.209607,53.8297872 48.209607,53.8297872 L52.7292576,67.287234 L58.2532751,69 L64.279476,53.0957447 L61.5174672,51.8723404 C61.5174672,51.8723404 58.7554585,48.2021277 59.7598253,46 L52.4781659,46 Z" id="Path" fill="#A0616A"></path>
                    <path d="M43.37269,92.4251439 C43.37269,92.4251439 38.4387388,98.3653839 39.6722266,118.908714 L39.425529,124.848954 C39.425529,124.848954 26.5972557,158.262804 34.9849729,159.995374 C43.37269,161.727944 44.1127827,162.965494 44.8528754,160.985414 C45.5929681,159.005334 57.4344512,113.463494 57.4344512,113.463494 C57.4344512,113.463494 67.0556562,160.737904 71.7429099,160.242884 C76.4301636,159.747864 82.5976027,161.232924 82.3509052,157.520274 C82.1042076,153.807624 76.4301636,125.343974 76.4301636,125.343974 C76.4301636,125.343974 75.1966758,91.4351039 68.7825391,89.4550239 C62.3684025,87.474944 49.2934316,86.732414 43.37269,92.4251439 Z" id="Path" fill="#2F2E41"></path>
                    <path d="M37.3082063,158 L35.2589417,163.67048 C35.2589417,163.67048 31.6158047,169.094417 33.8927653,169.834045 C36.1697259,170.573673 39.3574708,168.601332 39.3574708,168.601332 C39.3574708,168.601332 41.1790393,161.205054 41.1790393,159.232713 L37.3082063,158 Z" id="Path" fill="#2F2E41"></path>
                    <path d="M78.1939772,158 L80.2432417,163.67048 C80.2432417,163.67048 83.8863787,169.094417 81.6094181,169.834045 C79.3324575,170.573673 76.1447126,168.601332 76.1447126,168.601332 C76.1447126,168.601332 74.3231441,161.205054 74.3231441,159.232713 L78.1939772,158 Z" id="Path" fill="#2F2E41"></path>
                    <ellipse id="Oval" fill="#A0616A" cx="56.2445415" cy="43" rx="6.02620087" ry="6"></ellipse>
                    <path d="M56.7410793,62.2888399 C56.7410793,62.2888399 51.2410508,59.8391161 48.9910392,52.7349171 L44.9910185,53.959779 C44.9910185,53.959779 46.241025,61.7988951 45.4910211,63.5137018 C45.4910211,63.5137018 44.4910159,88.255912 44.9910185,88.7458567 C45.4910211,89.2358015 40.9909978,93.4003319 42.4910055,93.8902767 C43.9910133,94.3802214 51.9910547,93.1553596 50.9910496,91.6855253 L49.9910444,90.215691 L66.9911324,90.4606634 C66.9911324,90.4606634 65.7411259,93.8902767 69.2411441,93.8902767 C72.7411622,93.8902767 70.7411518,87.2760225 70.7411518,87.2760225 L68.4911402,64.4935913 C68.4911402,64.4935913 65.9911272,56.1645304 66.7411311,53.2248619 L63.241113,52 C63.241113,52 61.2411026,59.104199 56.7410793,62.2888399 Z" id="Path" fill="#3F3D56"></path>
                    <polygon id="Path" fill="#2F2E41" points="51.7744019 40.8666667 51.5719159 43 57.0650101 43 57.7864567 41.4 57.6347125 43 64.279476 43 59.7103143 35 49.6100621 35.2666667 47.2052402 43 50.8124731 43"></polygon>
                    <rect id="Rectangle" fill="#F2F2F2" x="98.4279476" y="51" width="64.279476" height="36"></rect>
                    <ellipse id="Oval" fill="#FFFFFF" cx="111.9869" cy="59.5" rx="5.52401747" ry="5.5"></ellipse>
                    <rect id="Rectangle" fill="#FFFFFF" x="121.528384" y="59" width="33.1441048" height="2"></rect>
                    <rect id="Rectangle" fill="#FFFFFF" x="121.528384" y="63" width="33.1441048" height="2"></rect>
                    <rect id="Rectangle" fill="#FFFFFF" x="106.462882" y="68" width="49.2139738" height="2"></rect>
                    <rect id="Rectangle" fill="#FFFFFF" x="106.462882" y="73" width="49.2139738" height="2"></rect>
                    <rect id="Rectangle" fill="#FFFFFF" x="106.462882" y="78" width="49.2139738" height="2"></rect>
                    <rect id="Rectangle" fill="#FFFFFF" x="106.462882" y="83" width="49.2139738" height="2"></rect>
                    <polygon id="Path" fill="#3F3D56" points="139.227332 87 97.4235808 87 97.4235808 51 162.707424 51 162.707424 65.14752 162.210969 65.14752 162.210969 51.48 97.9200359 51.48 97.9200359 86.52 139.227332 86.52"></polygon>
                    <rect id="Rectangle" fill="#F2F2F2" x="24.1048035" y="103" width="64.279476" height="36"></rect>
                    <polygon id="Path" fill="#3F3D56" points="64.9044365 139 23.1004367 139 23.1004367 103 88.3842795 103 88.3842795 117.14752 87.8878244 117.14752 87.8878244 103.48 23.5968918 103.48 23.5968918 138.52 64.9044365 138.52"></polygon>
                    <path d="M46.079858,55.0027059 C46.079858,55.0027059 40.9972139,54.7584995 40.9972139,58.9100084 C40.9972139,63.0615173 41.4812752,76.2486633 41.4812752,76.2486633 L41.9653366,80.4001722 L41.7233059,97.2504143 C41.7233059,97.2504143 37.1247231,107.75129 40.2711219,107.995496 C43.4175206,108.239703 45.1117353,98.4714464 45.1117353,98.4714464 L46.079858,89.6800157 C46.079858,89.6800157 45.4747813,65.869891 46.2008734,64.8930654 L46.079858,55.0027059 Z" id="Path" fill="#A0616A"></path>
                    <path d="M66.4092249,54.0027059 C66.4092249,54.0027059 71.4918691,53.7584995 71.4918691,57.9100084 C71.4918691,62.0615173 71.0078077,75.2486633 71.0078077,75.2486633 L70.5237464,79.4001722 L70.7657771,96.2504143 C70.7657771,96.2504143 75.3643599,106.75129 72.2179611,106.995496 C69.0715624,107.239703 67.3773476,97.4714464 67.3773476,97.4714464 L66.4092249,88.6800157 C66.4092249,88.6800157 67.0143016,64.869891 66.2882096,63.8930654 L66.4092249,54.0027059 Z" id="Path" fill="#A0616A"></path>
                    <ellipse id="Oval" fill="#6C63FF" cx="55.7423581" cy="120.5" rx="11.5502183" ry="11.5"></ellipse>
                    <polygon id="Path" fill="#FFFFFF" points="50.971678 119.800049 55.1900186 123.571359 61.1660634 115 63.2751092 116.71432 55.1900186 127 49.2139738 120.485874"></polygon>
                    <rect id="Rectangle" fill="#F2F2F2" transform="translate(197.860262, 20.000000) rotate(-180.000000) translate(-197.860262, -20.000000) " x="165.720524" y="2" width="64.279476" height="36"></rect>
                    <polygon id="Path" fill="#3F3D56" points="230 38 188.196248 38 188.196248 37.52 229.503545 37.52 229.503545 2.48 165.212612 2.48 165.212612 16.14728 164.716157 16.14728 164.716157 2 230 2"></polygon>
                    <rect id="Rectangle" fill="#FFFFFF" x="173.755459" y="6" width="49.2139738" height="2"></rect>
                    <rect id="Rectangle" fill="#FFFFFF" x="173.755459" y="11" width="49.2139738" height="2"></rect>
                    <rect id="Rectangle" fill="#FFFFFF" x="173.755459" y="15" width="49.2139738" height="2"></rect>
                    <rect id="Rectangle" fill="#FFFFFF" x="173.755459" y="20" width="49.2139738" height="2"></rect>
                    <rect id="Rectangle" fill="#FFFFFF" x="173.755459" y="24" width="49.2139738" height="2"></rect>
                    <rect id="Rectangle" fill="#FFFFFF" x="211.921397" y="30" width="11.0480349" height="5"></rect>
                    <rect id="Rectangle" stroke="#3F36BE" stroke-width="2" fill="#3F36BE" x="0" y="169" width="227.991266" height="1"></rect>
                    <ellipse id="Oval" fill="#6C63FF" cx="161.703057" cy="86" rx="5.02183406" ry="5"></ellipse>
                    <polygon id="Path" fill="#FFFFFF" points="50.971678 119.800049 55.1900186 123.571359 61.1660634 115 63.2751092 116.71432 55.1900186 127 49.2139738 120.485874"></polygon>
                    <polygon id="Path-Copy" fill="#FFFFFF" points="159.443258 86.0000202 161.251118 87.5713997 163.81228 84 164.716157 84.7143002 161.251118 89 158.689956 86.2857808"></polygon>
                    <ellipse id="Oval" fill="#6C63FF" cx="164.716157" cy="38" rx="5.02183406" ry="5"></ellipse>
                    <polygon id="Path-Copy-2" fill="#FFFFFF" points="162.456359 38.0000202 164.264219 39.5713997 166.825381 36 167.729258 36.7143002 164.264219 41 161.703057 38.2857808"></polygon>
                </g>
            </g>
        </g>
    </g>
</svg>