<?xml version="1.0" encoding="UTF-8"?>
<svg width="269px" height="207px" viewBox="0 0 269 207" version="1.1" xmlns="http://www.w3.org/2000/svg" xmlns:xlink="http://www.w3.org/1999/xlink">
    <!-- Generator: Sketch 55 (78076) - https://sketchapp.com -->
    <title>arrived_f58d</title>
    <desc>Created with Sketch.</desc>
    <g id="Page-1" stroke="none" stroke-width="1" fill="none" fill-rule="evenodd">
        <g id="alldayHR-job-board-+-landing-page" transform="translate(-1046.000000, -1966.000000)" fill-rule="nonzero">
            <g id="the-process-copy" transform="translate(150.000000, 1840.000000)">
                <g id="arrived_f58d" transform="translate(896.000000, 126.000000)">
                    <path d="M160.600464,195.99972 C124.688427,195.999891 93.7772785,170.557677 86.7710615,135.232536 C79.7648445,99.9073953 98.6148907,64.5378859 131.793253,50.7546089 C164.971615,36.9713319 203.237645,48.6131274 223.189342,78.5603312 C243.141039,108.507535 239.221571,148.419421 213.82793,173.88745 C199.742086,188.092018 180.575472,196.054399 160.600464,195.99972 L160.600464,195.99972 Z M160.600464,45.7907703 C119.523745,45.7907703 86.1053613,79.3070393 86.1053613,120.504076 C86.1053613,161.701113 119.523745,195.217382 160.600464,195.217382 C201.677183,195.217382 235.095566,161.701113 235.095566,120.504076 C235.095566,79.3070393 201.677183,45.7907703 160.600464,45.7907703 Z" id="Shape" fill="#3F3D56"></path>
                    <ellipse id="Oval" fill="#3F3D56" cx="134.5" cy="197" rx="134.5" ry="10"></ellipse>
                    <ellipse id="Oval" fill="#000000" opacity="0.1" cx="96.8600746" cy="196.5" rx="90.8376866" ry="6.5"></ellipse>
                    <ellipse id="Oval" fill="#F2F2F2" cx="162.604478" cy="167" rx="29.108209" ry="29"></ellipse>
                    <path d="M162.604478,122.689922 L155.383389,140.906977 L129.271929,141.118279 L120.765487,141.187506 L100.578941,141.351463 L92.0760907,141.420689 L71.8895439,141.584646 L63.3867174,141.653872 L43.2001497,141.821477 L34.6973232,141.890703 L21.0711308,142 L18.435443,136.556743 L15.0162471,129.506729 L13.1279395,125.60465 L12.0447761,122.689922 L18.5257069,101.977118 C19.8259703,97.8239904 23.6438861,95.0004745 27.9600616,95 L145.873205,95 C150.05781,95.0023239 153.788772,97.6600855 155.192019,101.638284 L155.943019,103.773318 L162.604478,122.689922 Z" id="Path" fill="#6C63FF"></path>
                    <rect id="Rectangle" fill="#6C63FF" x="12.0447761" y="122" width="150.559701" height="38"></rect>
                    <rect id="Rectangle" fill="#000000" opacity="0.1" x="12.0447761" y="122" width="150.559701" height="38"></rect>
                    <rect id="Rectangle" fill="#3F3D56" x="160.597015" y="71" width="5.01865672" height="5"></rect>
                    <rect id="Rectangle" fill="#3F3D56" x="172.641791" y="165" width="5.01865672" height="5"></rect>
                    <rect id="Rectangle" fill="#F2F2F2" x="40.1492537" y="75" width="95.3544776" height="120"></rect>
                    <rect id="Rectangle" fill="#3F3D56" x="60.2238806" y="83" width="28.1044776" height="4"></rect>
                    <rect id="Rectangle" fill="#E6E6E6" x="45.1679104" y="99" width="84.3134328" height="1"></rect>
                    <rect id="Rectangle" fill="#E6E6E6" x="45.1679104" y="105" width="84.3134328" height="1"></rect>
                    <rect id="Rectangle" fill="#E6E6E6" x="45.1679104" y="110" width="84.3134328" height="1"></rect>
                    <rect id="Rectangle" fill="#E6E6E6" x="45.1679104" y="116" width="84.3134328" height="1"></rect>
                    <rect id="Rectangle" fill="#E6E6E6" x="45.1679104" y="123" width="84.3134328" height="1"></rect>
                    <rect id="Rectangle" fill="#E6E6E6" x="45.1679104" y="127" width="84.3134328" height="1"></rect>
                    <path d="M48.1791045,89 C44.8530314,89 42.1567164,86.3137085 42.1567164,83 C42.1567164,79.6862915 44.8530314,77 48.1791045,77 C51.5051776,77 54.2014925,79.6862915 54.2014925,83 C54.1977781,86.3121744 51.5036378,88.9962994 48.1791045,89 L48.1791045,89 Z M48.1791045,77.705872 C46.0298416,77.705872 44.092209,78.9957439 43.2697219,80.9740223 C42.4472349,82.9523008 42.9018681,85.2293977 44.4216269,86.743506 C45.9413856,88.2576143 48.2269793,88.7105564 50.212639,87.891126 C52.1982987,87.0716955 53.4929826,85.1412654 53.4929816,82.9999923 C53.4896633,80.0774999 51.1125018,77.7091765 48.1791045,77.705872 L48.1791045,77.705872 Z" id="Shape" fill="#6C63FF"></path>
                    <polygon id="Path" fill="#3F3D56" points="162.604478 197 12.0447761 197 12.0447761 122 31.5417629 137.07181 143.829475 136.353969 162.604478 122"></polygon>
                    <rect id="Rectangle" fill="#F2F2F2" x="21.0783582" y="180" width="28.1044776" height="4"></rect>
                    <path d="M35.130597,173 C33.4675605,173 32.119403,171.656854 32.119403,170 C32.119403,168.343146 33.4675605,167 35.130597,167 C36.7936336,167 38.141791,168.343146 38.141791,170 C38.1398897,171.656069 36.7928453,172.998106 35.130597,173 L35.130597,173 Z M35.130597,167.5 C33.7447332,167.5 32.6212687,168.619288 32.6212687,170 C32.6212687,171.380712 33.7447332,172.5 35.130597,172.5 C36.5164608,172.5 37.6399254,171.380712 37.6399254,170 C37.6383848,168.619924 36.5158222,167.501535 35.130597,167.5 L35.130597,167.5 Z" id="Shape" fill="#FFFFFF"></path>
                    <ellipse id="Oval" fill="#2F2E41" cx="202.251866" cy="8.5" rx="8.53171642" ry="8.5"></ellipse>
                    <path d="M190.055505,122 C194.804098,122 200.679308,120.502802 206.404731,115.091373 C220.420789,101.842867 233.736562,100.514069 233.869403,100.502257 L233.820007,100 C233.685227,100.012064 220.180604,101.359073 206.031188,114.733393 C198.760584,121.605826 191.25612,122.026843 186.241079,121.169299 C182.928521,120.596825 179.773648,119.386699 176.969739,117.613055 L176.656716,118.019792 C179.520099,119.834332 182.742426,121.073673 186.126482,121.661963 C187.422963,121.885796 188.737866,121.998925 190.055505,122 Z" id="Path" fill="#2F2E41"></path>
                    <ellipse id="Oval" fill="#2F2E41" cx="226.843284" cy="108" rx="3.01119403" ry="3"></ellipse>
                    <ellipse id="Oval" fill="#2F2E41" cx="203.757463" cy="123" rx="3.01119403" ry="3"></ellipse>
                    <g id="congrats-lady" transform="translate(170.634328, 44.000000)">
                        <path d="M23.1865042,4.90697116 C20.4313572,0.235341964 14.9805196,0.0176222385 14.9805196,0.0176222385 C14.9805196,0.0176222385 9.66898754,-0.663986063 6.26167523,6.4509604 C3.08578782,13.0826784 -1.29734235,19.4857363 5.55602342,21.0381717 L6.79394163,17.1717428 L7.56057787,21.3260248 C8.53636553,21.3964513 9.51526269,21.4132392 10.4928786,21.3763132 C17.8322769,21.1385258 24.8219465,21.4458846 24.5969019,18.8029857 C24.2977303,15.289625 25.837507,9.40201064 23.1865042,4.90697116 Z" id="Path" fill="#2F2E41"></path>
                        <polygon id="Path" fill="#D0CDE1" points="11.031484 48.743416 11.740233 55.8551793 28.1586394 54.0773679 28.513014 48.743416"></polygon>
                        <path d="M9.25977401,52.6548884 L8.78730218,56.8034981 C8.78730218,56.8034981 3.35384775,64.3895257 3.826317,77.4280131 C4.29878625,90.4665005 -3.61514529,148.428501 2.05454506,148.902625 C7.7242354,149.37675 17.8824288,150.087941 18.3549032,148.309967 C18.8273776,146.531992 19.7723238,79.0874565 19.7723238,79.0874565 C19.7723238,79.0874565 22.2528138,148.394125 26.505081,148.631177 C30.7573481,148.868229 45.0496906,149.342369 45.0496906,147.564392 C45.0496906,145.786415 32.5291278,66.404565 32.5291278,66.404565 L30.5211122,59.7667812 L28.5130966,51.5880954 C28.5130966,51.5880954 15.9925311,53.7216658 12.5670949,52.8919428 C9.14165863,52.0622198 9.25977401,52.6548884 9.25977401,52.6548884 Z" id="Path" fill="#2F2E41"></path>
                        <ellipse id="Oval" fill="#A0616A" cx="14.9294644" cy="12.2355787" rx="7.55958541" ry="7.58602762"></ellipse>
                        <path d="M28.1587401,24.7999391 L26.7236111,26.8955808 L25.8046454,28.2361733 L24.2608294,30.4894611 L16.5831235,31.0821193 C16.5831235,31.0821193 14.7180269,30.4776012 12.5659128,29.5945491 C11.7709756,29.2673997 10.93587,28.9023216 10.1421175,28.5147256 C7.06277329,27.0141119 4.59172725,25.1827953 7.36987895,23.9702213 C7.86319889,23.7576227 8.33707804,23.5022043 8.78611749,23.2068761 C9.19467993,22.9389163 9.57501159,22.6299343 9.92123612,22.2847039 C11.3661312,20.8318135 12.0027161,18.7565652 11.6221461,16.739787 L19.0636135,15.6730018 C18.8474476,17.5671375 20.7243679,19.6331439 22.8280646,21.3198527 C23.5190407,21.8757684 24.2360284,22.3890052 24.9104808,22.841798 C26.6787116,24.0294842 28.1587401,24.7999391 28.1587401,24.7999391 Z" id="Path" fill="#A0616A"></path>
                        <path d="M18.0005467,27.0520432 C18.0005467,27.0520432 10.7362562,25.8074587 9.08259449,23.1997613 C9.08259449,23.1997613 1.93642452,24.0887498 2.52701689,27.8817636 C3.11760925,31.6747774 9.02353551,52.4178261 9.02353551,52.4178261 C9.02353551,52.4178261 23.7883525,49.5730638 29.2218043,51.7066343 L32.5291278,25.2740661 C32.5291278,25.2740661 31.3479404,22.6663687 29.1036889,23.3775605 C26.8594374,24.0887524 25.9735476,23.4368261 25.9735476,23.4368261 C25.9735476,23.4368261 23.4339986,27.0520432 18.0005467,27.0520432 Z" id="Path" fill="#D0CDE1"></path>
                        <path d="M24.6151859,68.6566666 C24.6151859,68.6566666 29.6942813,74.3461886 26.8594374,75.2944505 C24.0245935,76.2427123 20.599165,71.5014366 20.599165,71.5014366 L24.6151859,68.6566666 Z" id="Path" fill="#A0616A"></path>
                        <path d="M26.268845,69.1307936 C26.268845,69.1307936 22.1346959,71.9755559 23.6702371,73.8720615 C25.2057783,75.7685671 30.5211122,72.2126156 30.5211122,71.5014289 C30.5211122,70.7902422 26.268845,69.1307936 26.268845,69.1307936 Z" id="Path" fill="#A0616A"></path>
                        <path d="M16.1106439,53.7216736 L12.6852077,54.3143317 L10.4409562,37.6013642 C10.5704517,34.5692591 10.4705505,31.5316645 10.1421124,28.5147256 C9.89170147,26.4996888 9.47357051,24.5628769 8.78611233,23.2068735 C9.19467477,22.9389137 9.57500643,22.6299317 9.92123096,22.2847013 C10.7433463,23.5921023 12.2434449,26.3609994 12.5659076,29.5945491 C12.6501819,30.4042679 12.6505781,31.2205726 12.5670897,32.0303734 C11.9764974,37.6013642 12.0946153,38.6681572 12.0946153,38.6681572 L16.1106439,53.7216736 Z" id="Path" fill="#2F2E41"></path>
                        <path d="M8.19670981,24.2072809 C8.19670981,24.2072809 2.64514001,22.6663687 2.1726656,25.985258 C1.70019119,29.3041473 2.29078355,37.8384265 3.59008883,41.0387821 C4.8893941,44.2391378 9.37789455,54.6699329 9.37789455,54.6699329 C9.37789455,54.6699329 17.5280723,65.1007228 17.8824288,67.5898865 C18.2367852,70.0790503 20.0085623,72.6867504 20.0085623,72.6867504 L25.6782398,69.0122625 L14.5750976,50.165722 L9.73223552,37.1272372 C9.73223552,37.1272372 11.740264,25.2740661 8.19670981,24.2072809 Z" id="Path" fill="#D0CDE1"></path>
                        <path d="M29.9305198,24.681408 L32.5291278,25.2740661 C32.5291278,25.2740661 34.8914972,35.4677938 33.9465484,40.920251 C33.0015996,46.3727082 32.8834816,48.2692164 32.8834816,48.2692164 L32.0566533,63.7968676 C32.0566533,63.7968676 32.2928893,73.7535304 30.6392301,72.2126182 C28.985571,70.6717059 25.6782449,69.9605166 25.6782449,69.9605166 C25.6782449,69.9605166 26.0325988,65.574842 27.3319067,64.5080568 C27.3319067,64.5080568 28.8674478,56.3293711 27.922499,52.7734195 C26.9775502,49.2174679 29.9305198,24.681408 29.9305198,24.681408 Z" id="Path" fill="#D0CDE1"></path>
                        <path d="M30.875466,36.1789831 L27.8634452,53.6624028 L26.0326065,52.8919454 L29.2218069,36.1789779 L25.8046454,28.2361681 L22.8280646,21.3198449 C23.5190407,21.8757606 24.2360284,22.3889975 24.9104808,22.8417902 L26.7236111,26.8955756 L30.875466,36.1789831 Z" id="Path" fill="#2F2E41"></path>
                        <polygon id="Path" fill="#2F2E41" points="21.9683128 4.45664409 16.5832655 1.62597685 9.14656258 2.78398886 7.6080145 9.60333534 11.4379952 9.4554434 12.5080875 6.95008663 12.5080875 9.41426159 14.2753143 9.34588423 15.301013 5.35720498 15.9421392 9.60333534 22.2248665 9.47460979"></polygon>
                        <ellipse id="Oval" fill="#2F2E41" cx="11.330191" cy="149.374833" rx="3.67015083" ry="1.38111904"></ellipse>
                        <ellipse id="Oval" fill="#2F2E41" cx="36.1037007" cy="149.374833" rx="3.67015083" ry="1.38111904"></ellipse>
                    </g>
                </g>
            </g>
        </g>
    </g>
</svg>